<?xml version="1.0" encoding="utf-8"?>
<!-- Generator: Adobe Illustrator 16.0.3, SVG Export Plug-In . SVG Version: 6.00 Build 0)  -->
<!DOCTYPE svg PUBLIC "-//W3C//DTD SVG 1.1//EN" "http://www.w3.org/Graphics/SVG/1.1/DTD/svg11.dtd">
<svg version="1.1"
	 id="svg5738" xmlns:dc="http://purl.org/dc/elements/1.1/" xmlns:cc="http://creativecommons.org/ns#" xmlns:rdf="http://www.w3.org/1999/02/22-rdf-syntax-ns#" xmlns:svg="http://www.w3.org/2000/svg" xmlns:sodipodi="http://sodipodi.sourceforge.net/DTD/sodipodi-0.dtd" xmlns:inkscape="http://www.inkscape.org/namespaces/inkscape" sodipodi:docname="trash.svg" inkscape:version="0.91+devel+osxmenu r12911"
	 xmlns="http://www.w3.org/2000/svg" xmlns:xlink="http://www.w3.org/1999/xlink" x="0px" y="0px" width="20px" height="20px"
	 viewBox="0 0 20 20" enable-background="new 0 0 20 20" xml:space="preserve">
<sodipodi:namedview  showgrid="true" inkscape:cy="8.8461307" inkscape:cx="12.128184" inkscape:zoom="22.627417" borderopacity="1.0" bordercolor="#666666" pagecolor="#ffffff" id="base" inkscape:object-nodes="true" inkscape:snap-smooth-nodes="true" inkscape:window-maximized="0" inkscape:window-y="23" inkscape:current-layer="layer1" inkscape:window-x="20" inkscape:pageshadow="2" inkscape:document-units="px" inkscape:pageopacity="0.0" inkscape:window-height="751" inkscape:window-width="1033">
	<inkscape:grid  type="xygrid" enabled="true" visible="true" empspacing="5" id="grid5746" snapvisiblegridlinesonly="true">
		</inkscape:grid>
</sodipodi:namedview>
<path id="XMLID_360_" d="M8.363,16.352c0.376,0.067,0.764,0.104,1.16,0.104s0.784-0.036,1.16-0.104
	c0.011-0.001,0.021-0.003,0.03-0.005c2.488-0.457,4.489-2.322,5.146-4.735c0.004-0.014,0.008-0.026,0.011-0.039
	c0.142-0.537,0.219-1.102,0.219-1.682c0-0.924-0.192-1.801-0.537-2.599c-0.006-0.021-0.015-0.042-0.026-0.062
	c-0.868-1.949-2.657-3.4-4.812-3.796c-0.01-0.002-0.02-0.004-0.03-0.005c-0.376-0.067-0.764-0.103-1.16-0.103
	S8.74,3.361,8.363,3.428c-0.01,0.001-0.02,0.003-0.03,0.005C6.179,3.83,4.389,5.281,3.521,7.23c-0.01,0.02-0.019,0.041-0.026,0.063
	C3.15,8.089,2.959,8.967,2.959,9.891c0,0.581,0.076,1.146,0.219,1.683c0.003,0.013,0.006,0.024,0.01,0.036
	c0.656,2.414,2.657,4.28,5.146,4.737C8.343,16.349,8.353,16.351,8.363,16.352z M15.271,9.891c0,0.43-0.049,0.848-0.137,1.25
	c-1.044,0.221-2.116,0.379-3.209,0.473c0.038-0.557,0.059-1.135,0.059-1.723c0-0.512-0.016-1.014-0.045-1.502
	c1.026-0.098,2.022-0.259,2.979-0.482C15.146,8.524,15.271,9.193,15.271,9.891z M14.573,7.147c-0.868,0.195-1.769,0.338-2.696,0.427
	c-0.115-1.204-0.318-2.292-0.595-3.158C12.696,4.873,13.873,5.862,14.573,7.147z M11.854,12.438
	c1.021-0.082,2.024-0.218,3.005-0.408c-0.635,1.576-1.948,2.809-3.577,3.332C11.541,14.554,11.735,13.55,11.854,12.438z M8.708,4.2
	c0.267-0.038,0.539-0.058,0.815-0.058c0.277,0,0.549,0.02,0.815,0.058c0.343,0.857,0.594,2.062,0.726,3.438
	c-0.508,0.031-1.021,0.046-1.541,0.046c-0.52,0-1.033-0.015-1.54-0.046C8.115,6.262,8.365,5.057,8.708,4.2z M3.776,9.891
	c0-0.697,0.125-1.366,0.353-1.984C5.085,8.13,6.082,8.291,7.107,8.389c-0.029,0.488-0.044,0.99-0.044,1.502
	c0,0.588,0.02,1.166,0.059,1.723c-1.093-0.094-2.166-0.252-3.209-0.473C3.823,10.738,3.776,10.32,3.776,9.891z M4.189,12.03
	c0.98,0.19,1.984,0.326,3.005,0.408c0.118,1.111,0.313,2.115,0.571,2.924C6.137,14.839,4.824,13.606,4.189,12.03z M7.17,7.575
	C6.243,7.486,5.341,7.342,4.473,7.147c0.701-1.285,1.877-2.275,3.292-2.73C7.489,5.283,7.286,6.37,7.17,7.575z M7.88,9.891
	c0-0.49,0.014-0.971,0.042-1.438c0.527,0.033,1.062,0.049,1.602,0.049c0.541,0,1.076-0.016,1.603-0.049
	c0.026,0.467,0.042,0.948,0.042,1.438c0,0.61-0.021,1.209-0.064,1.781c-1.046,0.057-2.114,0.057-3.16,0
	C7.902,11.1,7.88,10.501,7.88,9.891z M11.027,12.493c-0.139,1.23-0.375,2.304-0.689,3.087c-0.266,0.038-0.538,0.058-0.815,0.058
	c-0.276,0-0.548-0.02-0.815-0.058c-0.314-0.783-0.55-1.856-0.689-3.087C9.017,12.544,10.031,12.544,11.027,12.493z M9.932,18.482
	v0.7h1.732c0.225,0,0.407,0.184,0.407,0.409c0,0.225-0.183,0.408-0.407,0.408H9.533c-0.003,0-0.006,0-0.009,0
	c-0.003,0-0.006,0-0.009,0h-2.13c-0.226,0-0.408-0.184-0.408-0.408c0-0.226,0.183-0.409,0.408-0.409h1.731v-1.696
	c0-0.226,0.183-0.407,0.408-0.407s0.409,0.182,0.409,0.407v0.179c4.104-0.213,7.376-3.619,7.376-7.774
	c0-4.156-3.272-7.562-7.376-7.775v0.178c0,0.226-0.183,0.409-0.409,0.409S9.115,2.519,9.115,2.293V1.697
	c0-0.226,0.183-0.409,0.408-0.409c4.743,0,8.603,3.859,8.603,8.603C18.126,14.496,14.486,18.269,9.932,18.482z"/>
</svg>
