<?xml version="1.0" encoding="utf-8"?>
<!-- Svg Vector Icons : http://www.onlinewebfonts.com/icon -->
<!DOCTYPE svg PUBLIC "-//W3C//DTD SVG 1.1//EN" "http://www.w3.org/Graphics/SVG/1.1/DTD/svg11.dtd">
<svg version="1.1" xmlns="http://www.w3.org/2000/svg" xmlns:xlink="http://www.w3.org/1999/xlink" x="0px" y="0px" viewBox="0 0 1000 1000" enable-background="new 0 0 1000 1000" xml:space="preserve">
<metadata> Svg Vector Icons : http://www.onlinewebfonts.com/icon </metadata>
<g><line fill="none" stroke="#040000" stroke-width="2" stroke-linejoin="round" stroke-miterlimit="10" x1="500" y1="826.7" x2="500" y2="990"/><line fill="none" stroke="#040000" stroke-width="2" stroke-linejoin="round" stroke-miterlimit="10" x1="990" y1="500" x2="826.7" y2="500"/><line fill="none" stroke="#040000" stroke-width="2" stroke-linejoin="round" stroke-miterlimit="10" x1="173.3" y1="500" x2="10" y2="500"/><path d="M659.3,169.2l44.9,106.2c61.3,57.2,98,134.7,98,224.6c0,167.4-138.8,306.3-306.3,306.3c-167.4,0-302.2-138.8-302.2-306.3c0-89.8,36.7-167.4,98-224.6l44.9-106.2C218.3,230.5,132.5,353,132.5,500c0,204.2,163.3,367.5,367.5,367.5c204.2,0,367.5-163.3,367.5-367.5C867.5,353,781.8,230.5,659.3,169.2z"/><polygon points="500,10 336.7,377.5 500,295.8 663.3,377.5 "/></g>
</svg>