<?xml version="1.0" encoding="utf-8"?>
<!-- Generator: Adobe Illustrator 16.0.3, SVG Export Plug-In . SVG Version: 6.00 Build 0)  -->
<!DOCTYPE svg PUBLIC "-//W3C//DTD SVG 1.1//EN" "http://www.w3.org/Graphics/SVG/1.1/DTD/svg11.dtd">
<svg version="1.1"
	 id="svg5738" xmlns:dc="http://purl.org/dc/elements/1.1/" xmlns:cc="http://creativecommons.org/ns#" xmlns:rdf="http://www.w3.org/1999/02/22-rdf-syntax-ns#" xmlns:svg="http://www.w3.org/2000/svg" xmlns:sodipodi="http://sodipodi.sourceforge.net/DTD/sodipodi-0.dtd" xmlns:inkscape="http://www.inkscape.org/namespaces/inkscape" sodipodi:docname="trash.svg" inkscape:version="0.91+devel+osxmenu r12911"
	 xmlns="http://www.w3.org/2000/svg" xmlns:xlink="http://www.w3.org/1999/xlink" x="0px" y="0px" width="20px" height="20px"
	 viewBox="0 0 20 20" enable-background="new 0 0 20 20" xml:space="preserve">
<sodipodi:namedview  showgrid="true" inkscape:cy="8.8461307" inkscape:cx="12.128184" inkscape:zoom="22.627417" borderopacity="1.0" bordercolor="#666666" pagecolor="#ffffff" id="base" inkscape:object-nodes="true" inkscape:snap-smooth-nodes="true" inkscape:window-maximized="0" inkscape:window-y="23" inkscape:current-layer="layer1" inkscape:window-x="20" inkscape:pageshadow="2" inkscape:document-units="px" inkscape:pageopacity="0.0" inkscape:window-height="751" inkscape:window-width="1033">
	<inkscape:grid  type="xygrid" enabled="true" visible="true" empspacing="5" id="grid5746" snapvisiblegridlinesonly="true">
		</inkscape:grid>
</sodipodi:namedview>
<path id="XMLID_2165_" d="M4.52,16.329c0.071,0.058,0.157,0.086,0.242,0.086c0.111,0,0.222-0.049,0.298-0.142
	c0.134-0.164,0.109-0.406-0.055-0.539c-1.134-0.922-1.97-2.117-2.446-3.453c1.443,0.293,2.926,0.498,4.435,0.612
	c0.07,0.692,0.163,1.359,0.277,1.986c0.039,0.208,0.238,0.347,0.447,0.308c0.208-0.037,0.347-0.238,0.308-0.446
	c-0.104-0.567-0.189-1.169-0.256-1.795c0.625,0.035,1.253,0.055,1.884,0.061c0.001,0,0.002,0,0.003,0
	c0.21,0,0.381-0.171,0.383-0.382S9.872,12.241,9.66,12.24c-0.657-0.007-1.312-0.028-1.961-0.067C7.633,11.353,7.6,10.498,7.6,9.632
	c0-0.716,0.022-1.42,0.066-2.099c0.756,0.05,1.523,0.076,2.3,0.076c0.773,0,1.541-0.026,2.3-0.078
	c0.035,0.555,0.057,1.126,0.064,1.705c0.002,0.21,0.173,0.379,0.383,0.379c0.001,0,0.002,0,0.005,0
	c0.212-0.003,0.381-0.176,0.379-0.388c-0.007-0.597-0.03-1.183-0.066-1.755c0.853-0.078,1.691-0.188,2.514-0.331
	c0.209-0.036,0.349-0.235,0.313-0.443s-0.235-0.349-0.444-0.313C14.615,6.523,13.8,6.631,12.97,6.707
	c-0.163-1.809-0.476-3.433-0.904-4.658c1.604,0.441,3.035,1.386,4.094,2.736c0.131,0.167,0.372,0.196,0.539,0.065
	s0.196-0.372,0.064-0.539C15.114,2.207,12.638,1,9.966,1C9.445,1,8.933,1.047,8.437,1.136C8.425,1.137,8.414,1.139,8.403,1.142
	c-2.836,0.521-5.193,2.433-6.332,5C2.059,6.164,2.049,6.186,2.041,6.21C1.586,7.259,1.334,8.417,1.334,9.632
	C1.334,12.24,2.495,14.681,4.52,16.329z M8.757,1.86c0.394-0.061,0.797-0.093,1.208-0.093c0.409,0,0.813,0.031,1.208,0.092
	c0.494,1.193,0.854,2.929,1.032,4.908c-0.739,0.05-1.487,0.074-2.24,0.074c-0.757,0-1.505-0.024-2.241-0.074
	C7.901,4.79,8.26,3.062,8.757,1.86z M7.864,2.052C7.435,3.281,7.123,4.899,6.96,6.708C5.579,6.582,4.24,6.369,2.956,6.068
	C3.947,4.125,5.724,2.646,7.864,2.052z M2.101,9.632c0-1.005,0.189-1.966,0.534-2.851c1.367,0.327,2.793,0.558,4.267,0.691
	c-0.045,0.7-0.069,1.423-0.069,2.159c0,0.845,0.031,1.682,0.092,2.487c-1.573-0.126-3.117-0.351-4.613-0.673
	C2.173,10.858,2.101,10.25,2.101,9.632z M15.529,1.875c0.633-0.142,1.481-0.215,1.945,0.248c0.541,0.541,0.46,1.758-0.223,3.339
	c-0.7,1.62-1.969,3.499-3.59,5.32c-0.291-0.213-0.649-0.339-1.037-0.339c-0.97,0-1.759,0.788-1.759,1.758
	c0,0.969,0.789,1.758,1.759,1.758s1.759-0.789,1.759-1.758c0-0.302-0.078-0.587-0.212-0.836c1.705-1.905,3.044-3.885,3.784-5.6
	c0.838-1.94,0.858-3.387,0.062-4.185c-0.392-0.392-1.17-0.789-2.656-0.454c-0.207,0.047-0.336,0.252-0.29,0.458
	C15.117,1.792,15.322,1.922,15.529,1.875z M12.625,13.193c-0.547,0-0.992-0.445-0.992-0.992c0-0.546,0.445-0.99,0.992-0.99
	c0.545,0,0.991,0.444,0.991,0.99C13.616,12.748,13.17,13.193,12.625,13.193z M10.83,14.587c-1.807,1.496-3.653,2.641-5.197,3.224
	c-0.799,0.303-1.506,0.453-2.106,0.453c-0.681,0-1.226-0.193-1.612-0.58c-0.39-0.391-0.786-1.165-0.457-2.641
	c0.046-0.207,0.251-0.338,0.458-0.291c0.207,0.046,0.337,0.251,0.291,0.458c-0.14,0.627-0.209,1.471,0.25,1.931
	c0.492,0.491,1.523,0.476,2.905-0.048c1.467-0.554,3.235-1.653,4.978-3.098c0.164-0.134,0.406-0.111,0.541,0.052
	S10.992,14.451,10.83,14.587z M18.426,7.907c0.114,0.564,0.172,1.145,0.172,1.725c0,0.767-0.101,1.511-0.289,2.219
	c-0.002,0.012-0.006,0.025-0.011,0.038c-0.86,3.178-3.495,5.633-6.77,6.233c-0.011,0.002-0.022,0.004-0.032,0.006
	c-0.497,0.09-1.009,0.136-1.53,0.136c-0.628,0-1.256-0.067-1.865-0.202c-0.207-0.046-0.337-0.25-0.292-0.457
	c0.046-0.207,0.25-0.337,0.458-0.292c0.555,0.123,1.127,0.185,1.7,0.185c0.411,0,0.814-0.032,1.208-0.093
	c0.26-0.629,0.49-1.436,0.673-2.349c0.041-0.207,0.243-0.342,0.45-0.301c0.208,0.041,0.343,0.244,0.302,0.451
	c-0.149,0.754-0.328,1.426-0.531,2.006c2.465-0.685,4.446-2.541,5.305-4.93c-0.595,0.119-1.198,0.227-1.802,0.316
	c-0.211,0.03-0.406-0.114-0.437-0.324c-0.03-0.209,0.112-0.403,0.321-0.436c0.729-0.108,1.456-0.24,2.165-0.393
	c0.137-0.583,0.211-1.19,0.211-1.814c0-0.529-0.054-1.059-0.158-1.573c-0.042-0.208,0.093-0.41,0.3-0.452
	C18.181,7.565,18.384,7.699,18.426,7.907z"/>
</svg>
