<?xml version="1.0" encoding="utf-8"?>
<!-- Generator: Adobe Illustrator 16.0.3, SVG Export Plug-In . SVG Version: 6.00 Build 0)  -->
<!DOCTYPE svg PUBLIC "-//W3C//DTD SVG 1.1//EN" "http://www.w3.org/Graphics/SVG/1.1/DTD/svg11.dtd">
<svg version="1.1"
	 id="svg5738" xmlns:dc="http://purl.org/dc/elements/1.1/" xmlns:cc="http://creativecommons.org/ns#" xmlns:rdf="http://www.w3.org/1999/02/22-rdf-syntax-ns#" xmlns:svg="http://www.w3.org/2000/svg" xmlns:sodipodi="http://sodipodi.sourceforge.net/DTD/sodipodi-0.dtd" xmlns:inkscape="http://www.inkscape.org/namespaces/inkscape" sodipodi:docname="trash.svg" inkscape:version="0.91+devel+osxmenu r12911"
	 xmlns="http://www.w3.org/2000/svg" xmlns:xlink="http://www.w3.org/1999/xlink" x="0px" y="0px" width="20px" height="20px"
	 viewBox="0 0 20 20" enable-background="new 0 0 20 20" xml:space="preserve">
<sodipodi:namedview  showgrid="true" inkscape:cy="8.8461307" inkscape:cx="12.128184" inkscape:zoom="22.627417" borderopacity="1.0" bordercolor="#666666" pagecolor="#ffffff" id="base" inkscape:object-nodes="true" inkscape:snap-smooth-nodes="true" inkscape:window-maximized="0" inkscape:window-y="23" inkscape:current-layer="layer1" inkscape:window-x="20" inkscape:pageshadow="2" inkscape:document-units="px" inkscape:pageopacity="0.0" inkscape:window-height="751" inkscape:window-width="1033">
	<inkscape:grid  type="xygrid" enabled="true" visible="true" empspacing="5" id="grid5746" snapvisiblegridlinesonly="true">
		</inkscape:grid>
</sodipodi:namedview>
<path id="XMLID_66_" d="M13.325,3.25c0-0.208,0.169-0.377,0.377-0.377h0.09c0.209,0,0.377,0.168,0.377,0.377
	s-0.168,0.377-0.377,0.377h-0.09C13.494,3.626,13.325,3.458,13.325,3.25z M14.714,9.727c-0.003,0.001-0.003,0.001-0.003,0.002
	l-0.597,0.595l-0.9-0.901l0.894-0.895c0.146-0.147,0.146-0.387-0.001-0.534c-0.147-0.147-0.386-0.146-0.533,0.001L12.681,8.89
	l-2.372-2.372c-0.147-0.146-0.386-0.146-0.534,0c-0.147,0.147-0.147,0.386,0,0.534l3.806,3.806l-1.16,1.161L7.039,6.635l1.457-1.457
	c0.147-0.147,0.147-0.387,0-0.534c-0.147-0.147-0.386-0.147-0.533,0L6.506,6.102L4.297,3.894c-0.147-0.147-0.386-0.147-0.533,0
	c-0.147,0.147-0.147,0.387,0,0.533l2.471,2.47c0,0.002,0.002,0.003,0.004,0.005C6.24,6.903,6.242,6.905,6.243,6.906l2.044,2.044
	l-1.239,1.238L5.234,8.375c-0.146-0.147-0.386-0.147-0.533,0s-0.147,0.386,0,0.532l1.814,1.815l-1.55,1.551c0,0,0,0.001,0,0.001
	c-0.001,0.001-0.001,0.001-0.001,0.001l-1.199,1.199c-0.147,0.146-0.147,0.386,0,0.532c0.147,0.148,0.386,0.148,0.533,0l0.933-0.934
	l0.934,0.934c0.073,0.074,0.17,0.11,0.267,0.11s0.192-0.036,0.268-0.11c0.146-0.146,0.146-0.386,0-0.532l-0.935-0.934l3.058-3.057
	l1.588,1.588l-1.875,1.874c-0.146,0.147-0.146,0.386,0,0.533c0.148,0.147,0.386,0.147,0.534,0l1.874-1.875l1.957,1.958
	c0.147,0.146,0.386,0.146,0.534,0c0.146-0.148,0.146-0.387,0-0.534l-0.479-0.478l2.025-2.024l0.989,0.989
	c0.146,0.148,0.386,0.148,0.532,0c0.146-0.146,0.146-0.386,0-0.532l-0.989-0.99l0.989-0.99c0.146-0.146,0.146-0.386,0-0.533
	s-0.386-0.147-0.532,0l-1.254,1.253C14.714,9.725,14.714,9.726,14.714,9.727z M18.373,17.211L18.369,4.36
	c0-0.007-0.002-0.013-0.002-0.019c-0.038-0.754-0.551-1.391-1.278-1.585c-0.201-0.053-0.407,0.065-0.462,0.266
	c-0.053,0.202,0.067,0.408,0.268,0.463c0.4,0.107,0.696,0.47,0.72,0.885l0.003,11.499c-0.154-0.106-0.331-0.188-0.524-0.239
	l-3.888-1.043c-0.295-0.079-0.618-0.079-0.912,0l-4.782,1.282l-4.861-1.294v-12.1l4.764,1.276c0.064,0.018,0.131,0.018,0.195,0
	l2.931-0.785c0.2-0.055,0.321-0.261,0.269-0.463c-0.056-0.201-0.262-0.32-0.464-0.266L7.511,2.997L2.37,1.62
	C2.257,1.59,2.136,1.613,2.043,1.685S1.896,1.867,1.896,1.983v12.883c0,0.17,0.115,0.32,0.28,0.364l5.238,1.394
	c0.063,0.017,0.131,0.017,0.194-0.001l4.88-1.308c0.168-0.044,0.354-0.044,0.521,0l3.89,1.043c0.509,0.137,0.824,0.683,0.688,1.192
	c-0.139,0.519-0.674,0.828-1.192,0.69l-3.217-0.861v-0.604l3.232,0.891c0.2,0.055,0.408-0.062,0.464-0.264
	c0.055-0.2-0.063-0.408-0.264-0.463l-3.709-1.022c-0.113-0.032-0.234-0.008-0.329,0.063c-0.093,0.07-0.148,0.182-0.148,0.3v1.391
	c0,0.169,0.115,0.318,0.28,0.363l3.494,0.935c0.149,0.041,0.299,0.06,0.446,0.06c0.763,0,1.464-0.511,1.671-1.282
	C18.365,17.567,18.382,17.388,18.373,17.211z M12.712,6.041c-0.673-1.321-1.089-2.249-1.089-2.791c0-1.172,0.953-2.125,2.124-2.125
	c1.172,0,2.125,0.953,2.125,2.125c0,0.542-0.417,1.47-1.089,2.791L14.71,6.186c-0.052,0.099-0.099,0.192-0.141,0.278
	c-0.014,0.025-0.025,0.05-0.038,0.076c-0.098,0.203-0.277,0.581-0.784,0.581s-0.688-0.378-0.783-0.582
	c-0.012-0.025-0.024-0.05-0.037-0.075c-0.045-0.089-0.094-0.186-0.146-0.288L12.712,6.041z M12.377,3.25
	c0,0.471,0.706,1.856,1.007,2.448l0.068,0.135c0.054,0.104,0.103,0.201,0.148,0.29c0.015,0.031,0.029,0.062,0.044,0.092
	c0.023,0.051,0.06,0.125,0.082,0.151c0.008,0.001,0.033,0.001,0.043,0c0.021-0.026,0.057-0.1,0.082-0.151
	c0.014-0.03,0.027-0.061,0.044-0.092c0.043-0.086,0.092-0.18,0.143-0.28l0.074-0.146c0.301-0.592,1.006-1.978,1.006-2.448
	c0-0.755-0.615-1.371-1.371-1.371C12.992,1.879,12.377,2.494,12.377,3.25z"/>
</svg>
