<?xml version="1.0" encoding="utf-8"?>
<!-- Generator: Adobe Illustrator 16.0.3, SVG Export Plug-In . SVG Version: 6.00 Build 0)  -->
<!DOCTYPE svg PUBLIC "-//W3C//DTD SVG 1.1//EN" "http://www.w3.org/Graphics/SVG/1.1/DTD/svg11.dtd">
<svg version="1.1"
	 id="svg5738" xmlns:dc="http://purl.org/dc/elements/1.1/" xmlns:cc="http://creativecommons.org/ns#" xmlns:rdf="http://www.w3.org/1999/02/22-rdf-syntax-ns#" xmlns:svg="http://www.w3.org/2000/svg" xmlns:sodipodi="http://sodipodi.sourceforge.net/DTD/sodipodi-0.dtd" xmlns:inkscape="http://www.inkscape.org/namespaces/inkscape" sodipodi:docname="trash.svg" inkscape:version="0.91+devel+osxmenu r12911"
	 xmlns="http://www.w3.org/2000/svg" xmlns:xlink="http://www.w3.org/1999/xlink" x="0px" y="0px" width="20px" height="20px"
	 viewBox="0 0 20 20" enable-background="new 0 0 20 20" xml:space="preserve">
<sodipodi:namedview  showgrid="true" inkscape:cy="8.8461307" inkscape:cx="12.128184" inkscape:zoom="22.627417" borderopacity="1.0" bordercolor="#666666" pagecolor="#ffffff" id="base" inkscape:object-nodes="true" inkscape:snap-smooth-nodes="true" inkscape:window-maximized="0" inkscape:window-y="23" inkscape:current-layer="layer1" inkscape:window-x="20" inkscape:pageshadow="2" inkscape:document-units="px" inkscape:pageopacity="0.0" inkscape:window-height="751" inkscape:window-width="1033">
	<inkscape:grid  type="xygrid" enabled="true" visible="true" empspacing="5" id="grid5746" snapvisiblegridlinesonly="true">
		</inkscape:grid>
</sodipodi:namedview>
<path d="M17.881,14.738L11.63,5.01c-0.093-0.146-0.241-0.232-0.399-0.232c-0.157,0-0.305,0.086-0.398,0.232L8.24,9.043L7.212,7.442
	C7.117,7.295,6.969,7.209,6.813,7.209c-0.157,0-0.306,0.086-0.399,0.233l-4.688,7.296c-0.114,0.178-0.132,0.412-0.048,0.611
	c0.084,0.197,0.258,0.322,0.447,0.322H17.48c0.189,0,0.361-0.125,0.446-0.322C18.013,15.15,17.993,14.916,17.881,14.738z
	 M3.124,14.506l3.688-5.741l1.028,1.6c0.094,0.147,0.243,0.234,0.4,0.234s0.305-0.087,0.399-0.234l2.591-4.032l5.25,8.173H3.124z"/>
</svg>
