<?xml version="1.0" encoding="utf-8"?>
<!-- Generator: Adobe Illustrator 16.0.3, SVG Export Plug-In . SVG Version: 6.00 Build 0)  -->
<!DOCTYPE svg PUBLIC "-//W3C//DTD SVG 1.1//EN" "http://www.w3.org/Graphics/SVG/1.1/DTD/svg11.dtd">
<svg fill="#C00" version="1.1" id="Layer_1" xmlns="http://www.w3.org/2000/svg" xmlns:xlink="http://www.w3.org/1999/xlink" x="0px" y="0px"
	 width="24px" height="24px" viewBox="0 0 24 24" enable-background="new 0 0 24 24" xml:space="preserve">
<path fill="none" d="M0,0h24v24H0V0z"/>
<path d="M20.828,21.819c-0.102,0.267-0.358,0.441-0.643,0.438c-0.083,0.015-0.166,0.015-0.247,0L12,18.914l-7.952,3.344
	c-0.352,0.139-0.751-0.036-0.888-0.388c-0.001-0.004-0.002-0.007-0.004-0.01c-0.177-0.335-0.049-0.75,0.285-0.926
	c0.038-0.02,0.075-0.035,0.112-0.047l6.649-2.742l-6.649-2.742c-0.361-0.109-0.566-0.492-0.457-0.855
	c0.111-0.362,0.494-0.566,0.855-0.456c0.032,0.011,0.064,0.022,0.095,0.037L12,17.434l7.952-3.305
	c0.341-0.163,0.751-0.018,0.914,0.324c0.16,0.343,0.016,0.751-0.327,0.913c-0.029,0.016-0.062,0.026-0.094,0.037l-6.663,2.742
	l6.65,2.742c0.355,0.124,0.546,0.515,0.42,0.872C20.846,21.78,20.838,21.801,20.828,21.819z M18.17,7.495V8.11
	c-0.003,0.292-0.1,0.576-0.274,0.809c-0.766,0.849-1.591,1.642-2.468,2.372v1.59c0.003,0.285-0.173,0.541-0.439,0.645l-2.961,1.192
	h-0.095l-2.977-1.192c-0.244-0.119-0.394-0.372-0.383-0.645v-1.59c-0.886-0.73-1.722-1.523-2.496-2.372
	C5.911,8.684,5.826,8.399,5.831,8.11V7.495c0.229-3.042,2.602-5.484,5.634-5.8h0.495l0,0h0.533
	C15.546,1.987,17.943,4.437,18.17,7.495z M9.944,7.179c0-0.758-0.613-1.371-1.371-1.371S7.202,6.421,7.202,7.179
	s0.613,1.371,1.371,1.371S9.944,7.937,9.944,7.179z M11.315,11.291c0-0.377-0.309-0.686-0.686-0.686
	c-0.378,0-0.686,0.309-0.686,0.686v0.686c0,0.378,0.308,0.686,0.686,0.686c0.377,0,0.686-0.308,0.686-0.686V11.291z M14.057,11.291
	c0-0.377-0.308-0.686-0.686-0.686c-0.377,0-0.686,0.309-0.686,0.686v0.686c0,0.378,0.309,0.686,0.686,0.686
	c0.378,0,0.686-0.308,0.686-0.686V11.291z M16.799,7.179c0-0.758-0.613-1.371-1.371-1.371s-1.371,0.613-1.371,1.371
	s0.613,1.371,1.371,1.371S16.799,7.937,16.799,7.179z"/>
</svg>
