<?xml version="1.0" encoding="utf-8"?>
<!-- Generator: Adobe Illustrator 16.0.3, SVG Export Plug-In . SVG Version: 6.00 Build 0)  -->
<!DOCTYPE svg PUBLIC "-//W3C//DTD SVG 1.1//EN" "http://www.w3.org/Graphics/SVG/1.1/DTD/svg11.dtd">
<svg version="1.1" xmlns="http://www.w3.org/2000/svg" xmlns:xlink="http://www.w3.org/1999/xlink" x="0px" y="0px" width="900px"
	 height="900px" viewBox="0 0 900 900" enable-background="new 0 0 900 900" xml:space="preserve">
<pattern  width="230" height="240" patternUnits="userSpaceOnUse" id="New_Pattern_7" viewBox="101.898 -270.969 230 240" overflow="visible">
	<g>
		<polygon fill="none" points="101.898,-270.969 331.898,-270.969 331.898,-30.969 101.898,-30.969 		"/>
		<g>
			<polygon fill="#8CC63F" points="331.898,-30.969 101.898,-30.969 101.898,-270.969 331.898,-270.969 			"/>
			<polygon fill="#005037" points="217.326,-141.99 178.482,-141.99 178.482,-118.939 152.314,-118.939 152.314,-141.942 
				113.514,-141.942 133.837,-174.518 120.904,-174.518 140.241,-205.476 130.4,-205.476 165.377,-261.531 200.396,-205.522 
				190.515,-205.522 209.893,-174.566 196.958,-174.566 			"/>
			<polygon fill="#005037" points="333.813,-23.051 294.968,-23.051 294.968,0 268.801,0 268.801,-23.004 230,-23.004 
				250.324,-55.58 237.389,-55.58 256.728,-86.537 246.887,-86.537 281.862,-142.592 316.883,-86.584 307.001,-86.584 
				326.379,-55.627 313.445,-55.627 			"/>
		</g>
		<g>
			<polygon fill="#005037" points="103.813,-23.051 64.968,-23.051 64.968,0 38.801,0 38.801,-23.004 0,-23.004 20.324,-55.58 
				7.389,-55.58 26.728,-86.537 16.887,-86.537 51.862,-142.592 86.883,-86.584 77.001,-86.584 96.379,-55.627 83.445,-55.627 			
				"/>
		</g>
		<g>
			<polygon fill="#005037" points="333.813,-263.051 294.968,-263.051 294.968,-240 268.801,-240 268.801,-263.004 230,-263.004 
				250.324,-295.58 237.389,-295.58 256.728,-326.537 246.887,-326.537 281.862,-382.592 316.883,-326.584 307.001,-326.584 
				326.379,-295.627 313.445,-295.627 			"/>
		</g>
		<g>
			<polygon fill="#005037" points="103.813,-263.051 64.968,-263.051 64.968,-240 38.801,-240 38.801,-263.004 0,-263.004 
				20.324,-295.58 7.389,-295.58 26.728,-326.537 16.887,-326.537 51.862,-382.592 86.883,-326.584 77.001,-326.584 
				96.379,-295.627 83.445,-295.627 			"/>
		</g>
	</g>
</pattern>
<g id="pozadine">
	<g id="Layer_16" display="none">
	</g>
	<g id="livada" display="none">
		<rect display="inline" fill="#A3D165" width="900" height="900"/>
	</g>
	<g id="kamenjar" display="none">
		<rect display="inline" fill="#B3B3B3" width="900" height="900"/>
	</g>
	<g id="Layer_15">
		<rect opacity="0.8" fill="url(#New_Pattern_7)" width="900" height="900"/>
	</g>
</g>
<g id="most" display="none">
	<g id="most_1_">
		<g display="inline">
			<rect id="canalw_3_" x="702.205" y="539.166" fill="#0071BC" width="109.09" height="360.334"/>
			<rect id="canale_3_" x="702.205" fill="#0071BC" width="109.09" height="360.833"/>
			<polyline id="bridge01_3_" fill="none" stroke="#333333" stroke-width="40" points="636.75,546.45 680.387,513.877 
				833.113,513.876 876.75,546.45 			"/>
			<polyline id="bridge02_3_" fill="none" stroke="#333333" stroke-width="40" points="636.75,352.72 680.387,385.294 
				833.113,385.294 876.75,352.72 			"/>
		</g>
		<g display="inline">
			<g>
				<g>
					<linearGradient id="path6712_41_" gradientUnits="userSpaceOnUse" x1="764.2578" y1="90.25" x2="806.0684" y2="90.25">
						<stop  offset="0.3622" style="stop-color:#FFFFFF;stop-opacity:0"/>
						<stop  offset="1" style="stop-color:#FFFFFF;stop-opacity:0.5"/>
					</linearGradient>
					<path id="path6712" fill="url(#path6712_41_)" d="M768.88,180.483c-5.947-6.544-4.347-20.483-4.347-30.295
						c0-12.454,4.758-23.769,13.751-30.272c-9.184-6.429-13.751-17.819-13.751-30.396c0-12.453,4.853-23.652,13.846-30.156
						c-9.278-6.461-13.846-17.818-13.846-30.586c0-9.185-1.742-22.432,3.539-28.778h36.046
						c-8.184,6.586-13.465,17.067-13.465,28.778c0,12.768,5.853,24.125,15.13,30.586c-8.992,6.504-15.13,17.703-15.13,30.156
						c0,12.578,5.853,23.967,15.034,30.396c-8.992,6.503-15.034,17.818-15.034,30.272c0,12.693,6.138,23.925,15.415,30.313
						L768.88,180.483z"/>
					<linearGradient id="path6712_42_" gradientUnits="userSpaceOnUse" x1="736.9512" y1="90.25" x2="778.7627" y2="90.25">
						<stop  offset="0.3622" style="stop-color:#FFFFFF;stop-opacity:0"/>
						<stop  offset="1" style="stop-color:#FFFFFF;stop-opacity:0.5"/>
					</linearGradient>
					<path id="path6712_2_" fill="url(#path6712_42_)" d="M741.574,180.483c-5.947-6.544-4.348-20.483-4.348-30.295
						c0-12.454,4.758-23.769,13.751-30.272c-9.184-6.429-13.751-17.819-13.751-30.396c0-12.453,4.854-23.652,13.846-30.156
						c-9.278-6.461-13.846-17.818-13.846-30.586c0-9.185-1.742-22.432,3.54-28.778h36.046c-8.185,6.586-13.465,17.067-13.465,28.778
						c0,12.768,5.852,24.125,15.129,30.586c-8.991,6.504-15.129,17.703-15.129,30.156c0,12.578,5.852,23.967,15.033,30.396
						c-8.991,6.503-15.033,17.818-15.033,30.272c0,12.693,6.138,23.925,15.415,30.313L741.574,180.483z"/>
					<linearGradient id="path6712_43_" gradientUnits="userSpaceOnUse" x1="714.9297" y1="90.25" x2="756.7412" y2="90.25">
						<stop  offset="0.3622" style="stop-color:#FFFFFF;stop-opacity:0"/>
						<stop  offset="1" style="stop-color:#FFFFFF;stop-opacity:0.5"/>
					</linearGradient>
					<path id="path6712_4_" fill="url(#path6712_43_)" d="M719.553,180.483c-5.947-6.544-4.348-20.483-4.348-30.295
						c0-12.454,4.758-23.769,13.752-30.272c-9.184-6.429-13.752-17.819-13.752-30.396c0-12.453,4.854-23.652,13.847-30.156
						c-9.278-6.461-13.847-17.818-13.847-30.586c0-9.185-1.741-22.432,3.54-28.778h36.046c-8.184,6.586-13.465,17.067-13.465,28.778
						c0,12.768,5.853,24.125,15.13,30.586c-8.992,6.504-15.13,17.703-15.13,30.156c0,12.578,5.853,23.967,15.034,30.396
						c-8.992,6.503-15.034,17.818-15.034,30.272c0,12.693,6.138,23.925,15.415,30.313L719.553,180.483z"/>
					<linearGradient id="path6712_44_" gradientUnits="userSpaceOnUse" x1="690.2666" y1="90.25" x2="732.0771" y2="90.25">
						<stop  offset="0.3622" style="stop-color:#FFFFFF;stop-opacity:0"/>
						<stop  offset="1" style="stop-color:#FFFFFF;stop-opacity:0.5"/>
					</linearGradient>
					<path id="path6712_3_" fill="url(#path6712_44_)" d="M694.89,180.483c-5.947-6.544-4.348-20.483-4.348-30.295
						c0-12.454,4.758-23.769,13.751-30.272c-9.184-6.429-13.751-17.819-13.751-30.396c0-12.453,4.854-23.652,13.846-30.156
						c-9.278-6.461-13.846-17.818-13.846-30.586c0-9.185-1.742-22.432,3.54-28.778h36.046c-8.185,6.586-13.465,17.067-13.465,28.778
						c0,12.768,5.852,24.125,15.129,30.586c-8.991,6.504-15.129,17.703-15.129,30.156c0,12.578,5.852,23.967,15.033,30.396
						c-8.991,6.503-15.033,17.818-15.033,30.272c0,12.693,6.138,23.925,15.414,30.313L694.89,180.483z"/>
				</g>
			</g>
			<g>
				<g>
					<linearGradient id="path6712_45_" gradientUnits="userSpaceOnUse" x1="766.0195" y1="270.75" x2="807.8301" y2="270.75">
						<stop  offset="0.3622" style="stop-color:#FFFFFF;stop-opacity:0"/>
						<stop  offset="1" style="stop-color:#FFFFFF;stop-opacity:0.5"/>
					</linearGradient>
					<path id="path6712_8_" fill="url(#path6712_45_)" d="M770.642,360.983c-5.947-6.544-4.347-20.483-4.347-30.295
						c0-12.436,4.758-23.769,13.751-30.272c-9.184-6.429-13.751-17.819-13.751-30.396c0-12.453,4.853-23.652,13.846-30.156
						c-9.278-6.461-13.846-17.818-13.846-30.586c0-9.185-1.742-22.432,3.539-28.778h36.046
						c-8.184,6.586-13.465,17.067-13.465,28.778c0,12.768,5.853,24.125,15.13,30.586c-8.992,6.504-15.13,17.703-15.13,30.156
						c0,12.578,5.853,23.967,15.034,30.396c-8.992,6.503-15.034,17.836-15.034,30.272c0,12.693,6.138,23.925,15.415,30.313
						L770.642,360.983z"/>
					<linearGradient id="path6712_46_" gradientUnits="userSpaceOnUse" x1="738.7129" y1="270.75" x2="780.5244" y2="270.75">
						<stop  offset="0.3622" style="stop-color:#FFFFFF;stop-opacity:0"/>
						<stop  offset="1" style="stop-color:#FFFFFF;stop-opacity:0.5"/>
					</linearGradient>
					<path id="path6712_7_" fill="url(#path6712_46_)" d="M743.336,360.983c-5.947-6.544-4.348-20.483-4.348-30.295
						c0-12.436,4.758-23.769,13.751-30.272c-9.184-6.429-13.751-17.819-13.751-30.396c0-12.453,4.854-23.652,13.846-30.156
						c-9.278-6.461-13.846-17.818-13.846-30.586c0-9.185-1.742-22.432,3.54-28.778h36.046c-8.185,6.586-13.465,17.067-13.465,28.778
						c0,12.768,5.852,24.125,15.129,30.586c-8.991,6.504-15.129,17.703-15.129,30.156c0,12.578,5.852,23.967,15.033,30.396
						c-8.991,6.503-15.033,17.836-15.033,30.272c0,12.693,6.138,23.925,15.415,30.313L743.336,360.983z"/>
					<linearGradient id="path6712_47_" gradientUnits="userSpaceOnUse" x1="716.6914" y1="270.75" x2="758.5029" y2="270.75">
						<stop  offset="0.3622" style="stop-color:#FFFFFF;stop-opacity:0"/>
						<stop  offset="1" style="stop-color:#FFFFFF;stop-opacity:0.5"/>
					</linearGradient>
					<path id="path6712_6_" fill="url(#path6712_47_)" d="M721.314,360.983c-5.947-6.544-4.348-20.483-4.348-30.295
						c0-12.436,4.758-23.769,13.752-30.272c-9.184-6.429-13.752-17.819-13.752-30.396c0-12.453,4.854-23.652,13.847-30.156
						c-9.278-6.461-13.847-17.818-13.847-30.586c0-9.185-1.741-22.432,3.54-28.778h36.046c-8.184,6.586-13.465,17.067-13.465,28.778
						c0,12.768,5.853,24.125,15.129,30.586c-8.991,6.504-15.129,17.703-15.129,30.156c0,12.578,5.853,23.967,15.034,30.396
						c-8.992,6.503-15.034,17.836-15.034,30.272c0,12.693,6.138,23.925,15.415,30.313L721.314,360.983z"/>
					<linearGradient id="path6712_48_" gradientUnits="userSpaceOnUse" x1="692.0283" y1="270.75" x2="733.8389" y2="270.75">
						<stop  offset="0.3622" style="stop-color:#FFFFFF;stop-opacity:0"/>
						<stop  offset="1" style="stop-color:#FFFFFF;stop-opacity:0.5"/>
					</linearGradient>
					<path id="path6712_5_" fill="url(#path6712_48_)" d="M696.651,360.983c-5.947-6.544-4.348-20.483-4.348-30.295
						c0-12.436,4.758-23.769,13.751-30.272c-9.184-6.429-13.751-17.819-13.751-30.396c0-12.453,4.854-23.652,13.846-30.156
						c-9.278-6.461-13.846-17.818-13.846-30.586c0-9.185-1.742-22.432,3.54-28.778h36.045c-8.184,6.586-13.464,17.067-13.464,28.778
						c0,12.768,5.852,24.125,15.129,30.586c-8.991,6.504-15.129,17.703-15.129,30.156c0,12.578,5.852,23.967,15.033,30.396
						c-8.991,6.503-15.033,17.836-15.033,30.272c0,12.693,6.138,23.925,15.414,30.313L696.651,360.983z"/>
				</g>
			</g>
		</g>
		<g display="inline">
			<g>
				<g>
					<linearGradient id="path6712_49_" gradientUnits="userSpaceOnUse" x1="765.8281" y1="629.25" x2="807.6387" y2="629.25">
						<stop  offset="0.3622" style="stop-color:#FFFFFF;stop-opacity:0"/>
						<stop  offset="1" style="stop-color:#FFFFFF;stop-opacity:0.5"/>
					</linearGradient>
					<path id="path6712_16_" fill="url(#path6712_49_)" d="M770.45,719.483c-5.947-6.544-4.347-20.483-4.347-30.296
						c0-12.453,4.757-23.769,13.751-30.271c-9.184-6.43-13.751-17.818-13.751-30.396c0-12.453,4.853-23.652,13.846-30.156
						c-9.278-6.461-13.846-17.817-13.846-30.586c0-9.184-1.742-22.432,3.539-28.777h36.046
						c-8.184,6.586-13.465,17.066-13.465,28.777c0,12.769,5.853,24.125,15.13,30.586c-8.992,6.504-15.13,17.703-15.13,30.156
						c0,12.578,5.853,23.967,15.034,30.396c-8.992,6.503-15.034,17.818-15.034,30.271c0,12.693,6.138,23.926,15.415,30.313
						L770.45,719.483z"/>
					<linearGradient id="path6712_50_" gradientUnits="userSpaceOnUse" x1="738.5215" y1="629.25" x2="780.332" y2="629.25">
						<stop  offset="0.3622" style="stop-color:#FFFFFF;stop-opacity:0"/>
						<stop  offset="1" style="stop-color:#FFFFFF;stop-opacity:0.5"/>
					</linearGradient>
					<path id="path6712_15_" fill="url(#path6712_50_)" d="M743.145,719.483c-5.947-6.544-4.348-20.483-4.348-30.296
						c0-12.453,4.758-23.769,13.751-30.271c-9.184-6.43-13.751-17.818-13.751-30.396c0-12.453,4.854-23.652,13.846-30.156
						c-9.278-6.461-13.846-17.817-13.846-30.586c0-9.184-1.742-22.432,3.54-28.777h36.046c-8.185,6.586-13.465,17.066-13.465,28.777
						c0,12.769,5.852,24.125,15.129,30.586c-8.992,6.504-15.129,17.703-15.129,30.156c0,12.578,5.852,23.967,15.033,30.396
						c-8.991,6.503-15.033,17.818-15.033,30.271c0,12.693,6.137,23.926,15.414,30.313L743.145,719.483z"/>
					<linearGradient id="path6712_51_" gradientUnits="userSpaceOnUse" x1="716.5" y1="629.25" x2="758.3115" y2="629.25">
						<stop  offset="0.3622" style="stop-color:#FFFFFF;stop-opacity:0"/>
						<stop  offset="1" style="stop-color:#FFFFFF;stop-opacity:0.5"/>
					</linearGradient>
					<path id="path6712_14_" fill="url(#path6712_51_)" d="M721.123,719.483c-5.947-6.544-4.348-20.483-4.348-30.296
						c0-12.453,4.758-23.769,13.752-30.271c-9.184-6.43-13.752-17.818-13.752-30.396c0-12.453,4.854-23.652,13.846-30.156
						c-9.277-6.461-13.846-17.817-13.846-30.586c0-9.184-1.741-22.432,3.54-28.777h36.046c-8.184,6.586-13.465,17.066-13.465,28.777
						c0,12.769,5.852,24.125,15.129,30.586c-8.991,6.504-15.129,17.703-15.129,30.156c0,12.578,5.852,23.967,15.034,30.396
						c-8.992,6.503-15.034,17.818-15.034,30.271c0,12.693,6.138,23.926,15.415,30.313L721.123,719.483z"/>
					<linearGradient id="path6712_52_" gradientUnits="userSpaceOnUse" x1="691.8369" y1="629.25" x2="733.6475" y2="629.25">
						<stop  offset="0.3622" style="stop-color:#FFFFFF;stop-opacity:0"/>
						<stop  offset="1" style="stop-color:#FFFFFF;stop-opacity:0.5"/>
					</linearGradient>
					<path id="path6712_13_" fill="url(#path6712_52_)" d="M696.46,719.483c-5.948-6.544-4.348-20.483-4.348-30.296
						c0-12.453,4.758-23.769,13.751-30.271c-9.184-6.43-13.751-17.818-13.751-30.396c0-12.453,4.853-23.652,13.846-30.156
						c-9.278-6.461-13.846-17.817-13.846-30.586c0-9.184-1.742-22.432,3.539-28.777h36.046
						c-8.184,6.586-13.465,17.066-13.465,28.777c0,12.769,5.853,24.125,15.13,30.586c-8.992,6.504-15.13,17.703-15.13,30.156
						c0,12.578,5.853,23.967,15.034,30.396c-8.991,6.503-15.034,17.818-15.034,30.271c0,12.693,6.138,23.926,15.415,30.313
						L696.46,719.483z"/>
				</g>
			</g>
			<g>
				<g>
					<linearGradient id="path6712_53_" gradientUnits="userSpaceOnUse" x1="767.5889" y1="809.75" x2="809.4004" y2="809.75">
						<stop  offset="0.3622" style="stop-color:#FFFFFF;stop-opacity:0"/>
						<stop  offset="1" style="stop-color:#FFFFFF;stop-opacity:0.5"/>
					</linearGradient>
					<path id="path6712_12_" fill="url(#path6712_53_)" d="M772.212,899.982c-5.947-6.543-4.348-20.482-4.348-30.295
						c0-12.436,4.758-23.77,13.752-30.271c-9.184-6.43-13.752-17.819-13.752-30.396c0-12.453,4.854-23.652,13.847-30.156
						c-9.278-6.461-13.847-17.818-13.847-30.586c0-9.185-1.741-22.432,3.54-28.777h36.046c-8.184,6.586-13.465,17.066-13.465,28.777
						c0,12.768,5.853,24.125,15.129,30.586c-8.991,6.504-15.129,17.703-15.129,30.156c0,12.577,5.853,23.967,15.034,30.396
						c-8.992,6.502-15.034,17.836-15.034,30.271c0,12.693,6.138,23.926,15.415,30.313L772.212,899.982z"/>
					<linearGradient id="path6712_54_" gradientUnits="userSpaceOnUse" x1="740.2832" y1="809.75" x2="782.0938" y2="809.75">
						<stop  offset="0.3622" style="stop-color:#FFFFFF;stop-opacity:0"/>
						<stop  offset="1" style="stop-color:#FFFFFF;stop-opacity:0.5"/>
					</linearGradient>
					<path id="path6712_11_" fill="url(#path6712_54_)" d="M744.906,899.982c-5.947-6.543-4.348-20.482-4.348-30.295
						c0-12.436,4.758-23.77,13.751-30.271c-9.184-6.43-13.751-17.819-13.751-30.396c0-12.453,4.854-23.652,13.846-30.156
						c-9.278-6.461-13.846-17.818-13.846-30.586c0-9.185-1.742-22.432,3.54-28.777h36.046c-8.185,6.586-13.465,17.066-13.465,28.777
						c0,12.768,5.852,24.125,15.129,30.586c-8.992,6.504-15.129,17.703-15.129,30.156c0,12.577,5.852,23.967,15.033,30.396
						c-8.991,6.502-15.033,17.836-15.033,30.271c0,12.693,6.137,23.926,15.414,30.313L744.906,899.982z"/>
					<linearGradient id="path6712_55_" gradientUnits="userSpaceOnUse" x1="718.2617" y1="809.75" x2="760.0732" y2="809.75">
						<stop  offset="0.3622" style="stop-color:#FFFFFF;stop-opacity:0"/>
						<stop  offset="1" style="stop-color:#FFFFFF;stop-opacity:0.5"/>
					</linearGradient>
					<path id="path6712_10_" fill="url(#path6712_55_)" d="M722.885,899.982c-5.947-6.543-4.348-20.482-4.348-30.295
						c0-12.436,4.758-23.77,13.752-30.271c-9.184-6.43-13.752-17.819-13.752-30.396c0-12.453,4.854-23.652,13.846-30.156
						c-9.277-6.461-13.846-17.818-13.846-30.586c0-9.185-1.741-22.432,3.54-28.777h36.046c-8.184,6.586-13.465,17.066-13.465,28.777
						c0,12.768,5.852,24.125,15.129,30.586c-8.991,6.504-15.129,17.703-15.129,30.156c0,12.577,5.852,23.967,15.034,30.396
						c-8.992,6.502-15.034,17.836-15.034,30.271c0,12.693,6.138,23.926,15.415,30.313L722.885,899.982z"/>
					<linearGradient id="path6712_56_" gradientUnits="userSpaceOnUse" x1="693.5986" y1="809.75" x2="735.4092" y2="809.75">
						<stop  offset="0.3622" style="stop-color:#FFFFFF;stop-opacity:0"/>
						<stop  offset="1" style="stop-color:#FFFFFF;stop-opacity:0.5"/>
					</linearGradient>
					<path id="path6712_9_" fill="url(#path6712_56_)" d="M698.221,899.982c-5.947-6.543-4.347-20.482-4.347-30.295
						c0-12.436,4.758-23.77,13.751-30.271c-9.184-6.43-13.751-17.819-13.751-30.396c0-12.453,4.853-23.652,13.846-30.156
						c-9.278-6.461-13.846-17.818-13.846-30.586c0-9.185-1.742-22.432,3.539-28.777h36.046
						c-8.184,6.586-13.465,17.066-13.465,28.777c0,12.768,5.853,24.125,15.13,30.586c-8.992,6.504-15.13,17.703-15.13,30.156
						c0,12.577,5.853,23.967,15.034,30.396c-8.991,6.502-15.034,17.836-15.034,30.271c0,12.693,6.138,23.926,15.415,30.313
						L698.221,899.982z"/>
				</g>
			</g>
		</g>
	</g>
</g>
<g id="rijeka" display="none">
	<rect id="rijeka_1_" x="702.205" y="-300" display="inline" fill="#0071BC" width="109.09" height="1500"/>
	<g display="inline">
		<g>
			<g>
				<g>
					
						<linearGradient id="path6712_57_" gradientUnits="userSpaceOnUse" x1="764.6904" y1="685.8926" x2="810.1572" y2="685.8926" gradientTransform="matrix(0.9999 0.014 -0.014 0.9999 6.0432 -10.0535)">
						<stop  offset="0.3622" style="stop-color:#FFFFFF;stop-opacity:0"/>
						<stop  offset="1" style="stop-color:#FFFFFF;stop-opacity:0.5"/>
					</linearGradient>
					<path id="path6712_24_" fill="url(#path6712_57_)" d="M764.984,765.271c-6.387-5.799-4.478-17.937-4.358-26.497
						c0.151-10.864,5.464-20.664,15.32-26.201c-9.906-5.749-14.734-15.753-14.581-26.728c0.151-10.864,5.565-20.56,15.421-26.097
						c-10.008-5.778-14.837-15.756-14.681-26.896c0.111-8.012-1.621-19.596,4.199-25.052l39.188,0.548
						c-8.979,5.622-14.847,14.684-14.989,24.9c-0.156,11.14,6.068,21.137,16.076,26.915c-9.855,5.537-16.665,15.213-16.816,26.077
						c-0.153,10.975,6.07,20.998,15.975,26.747c-9.854,5.537-16.563,15.317-16.714,26.182c-0.154,11.073,6.382,20.967,16.391,26.679
						L764.984,765.271z"/>
					
						<linearGradient id="path6712_58_" gradientUnits="userSpaceOnUse" x1="735" y1="685.8945" x2="780.4668" y2="685.8945" gradientTransform="matrix(0.9999 0.014 -0.014 0.9999 6.0432 -10.0535)">
						<stop  offset="0.3622" style="stop-color:#FFFFFF;stop-opacity:0"/>
						<stop  offset="1" style="stop-color:#FFFFFF;stop-opacity:0.5"/>
					</linearGradient>
					<path id="path6712_23_" fill="url(#path6712_58_)" d="M735.297,764.855c-6.387-5.799-4.477-17.936-4.357-26.496
						c0.151-10.864,5.463-20.664,15.319-26.201c-9.906-5.749-14.733-15.753-14.58-26.728c0.151-10.864,5.564-20.561,15.421-26.098
						c-10.009-5.777-14.837-15.755-14.681-26.895c0.111-8.012-1.622-19.596,4.199-25.052l39.188,0.547
						c-8.979,5.622-14.848,14.685-14.99,24.901c-0.156,11.14,6.069,21.137,16.076,26.914c-9.854,5.537-16.665,15.214-16.816,26.078
						c-0.153,10.975,6.071,20.998,15.976,26.747c-9.854,5.537-16.563,15.317-16.715,26.182
						c-0.154,11.073,6.383,20.966,16.391,26.679L735.297,764.855z"/>
					
						<linearGradient id="path6712_59_" gradientUnits="userSpaceOnUse" x1="711.0576" y1="685.8945" x2="756.5234" y2="685.8945" gradientTransform="matrix(0.9999 0.014 -0.014 0.9999 6.0432 -10.0535)">
						<stop  offset="0.3622" style="stop-color:#FFFFFF;stop-opacity:0"/>
						<stop  offset="1" style="stop-color:#FFFFFF;stop-opacity:0.5"/>
					</linearGradient>
					<path id="path6712_22_" fill="url(#path6712_59_)" d="M711.355,764.521c-6.386-5.799-4.476-17.936-4.356-26.496
						c0.151-10.864,5.462-20.664,15.318-26.202c-9.906-5.748-14.732-15.752-14.579-26.727c0.151-10.864,5.563-20.561,15.42-26.098
						c-10.009-5.777-14.836-15.755-14.68-26.895c0.111-8.012-1.622-19.596,4.198-25.052l39.188,0.547
						c-8.979,5.622-14.847,14.685-14.989,24.901c-0.156,11.14,6.068,21.137,16.075,26.914c-9.854,5.537-16.664,15.214-16.815,26.078
						c-0.153,10.975,6.07,20.998,15.975,26.746c-9.854,5.538-16.563,15.318-16.714,26.183c-0.154,11.073,6.382,20.966,16.39,26.678
						L711.355,764.521z"/>
					
						<linearGradient id="path6712_60_" gradientUnits="userSpaceOnUse" x1="684.2412" y1="685.8965" x2="729.707" y2="685.8965" gradientTransform="matrix(0.9999 0.014 -0.014 0.9999 6.0432 -10.0535)">
						<stop  offset="0.3622" style="stop-color:#FFFFFF;stop-opacity:0"/>
						<stop  offset="1" style="stop-color:#FFFFFF;stop-opacity:0.5"/>
					</linearGradient>
					<path id="path6712_21_" fill="url(#path6712_60_)" d="M684.542,764.147c-6.386-5.8-4.477-17.937-4.357-26.497
						c0.151-10.864,5.463-20.664,15.319-26.201c-9.906-5.749-14.733-15.753-14.58-26.728c0.151-10.864,5.564-20.56,15.42-26.098
						c-10.008-5.777-14.836-15.755-14.68-26.895c0.111-8.012-1.621-19.596,4.199-25.052l39.188,0.548
						c-8.979,5.621-14.848,14.684-14.99,24.9c-0.156,11.14,6.069,21.137,16.076,26.914c-9.854,5.538-16.665,15.214-16.816,26.078
						c-0.153,10.975,6.071,20.998,15.976,26.747c-9.855,5.537-16.563,15.317-16.715,26.182
						c-0.154,11.073,6.383,20.967,16.391,26.679L684.542,764.147z"/>
				</g>
			</g>
			<g>
				<g>
					
						<linearGradient id="path6712_61_" gradientUnits="userSpaceOnUse" x1="766.6123" y1="843.3789" x2="812.0781" y2="843.3789" gradientTransform="matrix(0.9999 0.014 -0.014 0.9999 6.0432 -10.0535)">
						<stop  offset="0.3622" style="stop-color:#FFFFFF;stop-opacity:0"/>
						<stop  offset="1" style="stop-color:#FFFFFF;stop-opacity:0.5"/>
					</linearGradient>
					<path id="path6712_20_" fill="url(#path6712_61_)" d="M764.701,922.765c-6.388-5.796-4.478-17.933-4.357-26.493
						c0.151-10.851,5.462-20.665,15.318-26.2c-9.906-5.75-14.733-15.755-14.58-26.729c0.152-10.864,5.564-20.561,15.42-26.098
						c-10.008-5.776-14.835-15.755-14.68-26.894c0.112-8.014-1.621-19.596,4.199-25.053l39.188,0.547
						c-8.978,5.622-14.848,14.686-14.99,24.902c-0.155,11.139,6.069,21.137,16.076,26.913c-9.854,5.537-16.664,15.214-16.816,26.078
						c-0.153,10.974,6.071,20.998,15.976,26.748c-9.855,5.535-16.563,15.33-16.714,26.181c-0.155,11.073,6.382,20.966,16.39,26.678
						L764.701,922.765z"/>
					
						<linearGradient id="path6712_62_" gradientUnits="userSpaceOnUse" x1="736.9219" y1="843.3809" x2="782.3887" y2="843.3809" gradientTransform="matrix(0.9999 0.014 -0.014 0.9999 6.0432 -10.0535)">
						<stop  offset="0.3622" style="stop-color:#FFFFFF;stop-opacity:0"/>
						<stop  offset="1" style="stop-color:#FFFFFF;stop-opacity:0.5"/>
					</linearGradient>
					<path id="path6712_19_" fill="url(#path6712_62_)" d="M735.015,922.351c-6.388-5.797-4.479-17.934-4.358-26.494
						c0.151-10.851,5.463-20.665,15.319-26.2c-9.906-5.75-14.734-15.755-14.581-26.729c0.152-10.864,5.565-20.56,15.421-26.097
						c-10.008-5.777-14.836-15.756-14.681-26.895c0.112-8.014-1.62-19.596,4.199-25.053l39.188,0.548
						c-8.978,5.621-14.847,14.685-14.989,24.901c-0.155,11.139,6.068,21.137,16.076,26.914
						c-9.855,5.537-16.664,15.213-16.816,26.077c-0.153,10.974,6.07,20.998,15.975,26.748c-9.854,5.535-16.562,15.33-16.713,26.181
						c-0.155,11.073,6.381,20.967,16.39,26.679L735.015,922.351z"/>
					
						<linearGradient id="path6712_63_" gradientUnits="userSpaceOnUse" x1="712.9785" y1="843.3809" x2="758.4443" y2="843.3809" gradientTransform="matrix(0.9999 0.014 -0.014 0.9999 6.0432 -10.0535)">
						<stop  offset="0.3622" style="stop-color:#FFFFFF;stop-opacity:0"/>
						<stop  offset="1" style="stop-color:#FFFFFF;stop-opacity:0.5"/>
					</linearGradient>
					<path id="path6712_18_" fill="url(#path6712_63_)" d="M711.073,922.017c-6.387-5.797-4.479-17.934-4.358-26.494
						c0.151-10.851,5.462-20.665,15.319-26.2c-9.906-5.75-14.734-15.755-14.581-26.729c0.152-10.864,5.565-20.561,15.421-26.098
						c-10.008-5.776-14.836-15.755-14.681-26.894c0.112-8.014-1.619-19.596,4.199-25.053l39.188,0.547
						c-8.978,5.622-14.846,14.686-14.988,24.902c-0.155,11.139,6.067,21.137,16.075,26.913
						c-9.855,5.537-16.663,15.214-16.815,26.078c-0.153,10.974,6.069,20.998,15.974,26.748c-9.854,5.535-16.561,15.33-16.712,26.181
						c-0.155,11.073,6.38,20.966,16.388,26.679L711.073,922.017z"/>
					
						<linearGradient id="path6712_64_" gradientUnits="userSpaceOnUse" x1="686.1621" y1="843.3828" x2="731.6279" y2="843.3828" gradientTransform="matrix(0.9999 0.014 -0.014 0.9999 6.0432 -10.0535)">
						<stop  offset="0.3622" style="stop-color:#FFFFFF;stop-opacity:0"/>
						<stop  offset="1" style="stop-color:#FFFFFF;stop-opacity:0.5"/>
					</linearGradient>
					<path id="path6712_17_" fill="url(#path6712_64_)" d="M684.259,921.642c-6.387-5.796-4.478-17.933-4.357-26.493
						c0.151-10.851,5.462-20.665,15.318-26.201c-9.905-5.749-14.733-15.754-14.58-26.728c0.152-10.864,5.565-20.561,15.421-26.098
						c-10.008-5.776-14.836-15.755-14.681-26.894c0.112-8.014-1.62-19.597,4.199-25.053l39.188,0.547
						c-8.978,5.622-14.847,14.686-14.989,24.902c-0.155,11.139,6.068,21.137,16.075,26.913
						c-9.854,5.537-16.663,15.214-16.815,26.078c-0.153,10.974,6.07,20.998,15.975,26.747c-9.854,5.536-16.562,15.331-16.713,26.182
						c-0.155,11.073,6.381,20.966,16.389,26.678L684.259,921.642z"/>
				</g>
			</g>
		</g>
		<g>
			<g>
				<g>
					
						<linearGradient id="path6712_65_" gradientUnits="userSpaceOnUse" x1="760.6309" y1="370.9185" x2="806.0957" y2="370.9185" gradientTransform="matrix(0.9999 0.014 -0.014 0.9999 6.0432 -10.0535)">
						<stop  offset="0.3622" style="stop-color:#FFFFFF;stop-opacity:0"/>
						<stop  offset="1" style="stop-color:#FFFFFF;stop-opacity:0.5"/>
					</linearGradient>
					<path id="path6712_32_" fill="url(#path6712_65_)" d="M765.334,450.27c-6.386-5.799-4.477-17.936-4.357-26.496
						c0.152-10.865,5.462-20.664,15.319-26.201c-9.906-5.749-14.733-15.753-14.58-26.728c0.152-10.864,5.564-20.561,15.42-26.099
						c-10.008-5.776-14.835-15.754-14.68-26.893c0.112-8.013-1.62-19.597,4.198-25.052l39.188,0.547
						c-8.978,5.622-14.846,14.685-14.988,24.901c-0.155,11.139,6.067,21.136,16.074,26.913
						c-9.854,5.538-16.662,15.215-16.814,26.079c-0.153,10.975,6.069,20.998,15.974,26.747
						c-9.854,5.537-16.561,15.316-16.713,26.182c-0.154,11.073,6.381,20.966,16.389,26.679L765.334,450.27z"/>
					
						<linearGradient id="path6712_66_" gradientUnits="userSpaceOnUse" x1="730.9414" y1="370.9189" x2="776.4063" y2="370.9189" gradientTransform="matrix(0.9999 0.014 -0.014 0.9999 6.0432 -10.0535)">
						<stop  offset="0.3622" style="stop-color:#FFFFFF;stop-opacity:0"/>
						<stop  offset="1" style="stop-color:#FFFFFF;stop-opacity:0.5"/>
					</linearGradient>
					<path id="path6712_31_" fill="url(#path6712_66_)" d="M735.646,449.854c-6.386-5.799-4.476-17.935-4.356-26.496
						c0.152-10.864,5.462-20.664,15.318-26.2c-9.906-5.749-14.732-15.753-14.579-26.728c0.152-10.864,5.563-20.561,15.419-26.1
						c-10.008-5.775-14.834-15.753-14.679-26.893c0.112-8.013-1.621-19.597,4.198-25.052l39.188,0.547
						c-8.978,5.622-14.847,14.685-14.989,24.901c-0.155,11.139,6.068,21.137,16.075,26.912c-9.854,5.539-16.663,15.216-16.815,26.08
						c-0.153,10.975,6.07,20.998,15.975,26.747c-9.854,5.537-16.562,15.316-16.714,26.181c-0.154,11.073,6.382,20.967,16.39,26.679
						L735.646,449.854z"/>
					
						<linearGradient id="path6712_67_" gradientUnits="userSpaceOnUse" x1="706.998" y1="370.9199" x2="752.4639" y2="370.9199" gradientTransform="matrix(0.9999 0.014 -0.014 0.9999 6.0432 -10.0535)">
						<stop  offset="0.3622" style="stop-color:#FFFFFF;stop-opacity:0"/>
						<stop  offset="1" style="stop-color:#FFFFFF;stop-opacity:0.5"/>
					</linearGradient>
					<path id="path6712_30_" fill="url(#path6712_67_)" d="M711.707,449.521c-6.388-5.799-4.478-17.936-4.358-26.496
						c0.152-10.865,5.463-20.664,15.319-26.201c-9.906-5.749-14.733-15.753-14.58-26.728c0.152-10.864,5.564-20.56,15.42-26.099
						c-10.008-5.776-14.835-15.754-14.68-26.893c0.112-8.013-1.621-19.597,4.199-25.052l39.188,0.547
						c-8.978,5.622-14.848,14.685-14.99,24.902c-0.155,11.139,6.069,21.136,16.076,26.912c-9.854,5.539-16.664,15.215-16.816,26.079
						c-0.153,10.975,6.071,20.998,15.976,26.747c-9.855,5.537-16.563,15.316-16.715,26.182
						c-0.154,11.073,6.383,20.966,16.391,26.679L711.707,449.521z"/>
					
						<linearGradient id="path6712_68_" gradientUnits="userSpaceOnUse" x1="680.1807" y1="370.9209" x2="725.6465" y2="370.9209" gradientTransform="matrix(0.9999 0.014 -0.014 0.9999 6.0432 -10.0535)">
						<stop  offset="0.3622" style="stop-color:#FFFFFF;stop-opacity:0"/>
						<stop  offset="1" style="stop-color:#FFFFFF;stop-opacity:0.5"/>
					</linearGradient>
					<path id="path6712_29_" fill="url(#path6712_68_)" d="M684.893,449.146c-6.387-5.799-4.478-17.935-4.358-26.496
						c0.152-10.864,5.463-20.663,15.319-26.2c-9.906-5.749-14.733-15.753-14.58-26.728c0.152-10.864,5.564-20.561,15.42-26.099
						c-10.008-5.776-14.835-15.754-14.68-26.893c0.112-8.013-1.62-19.597,4.199-25.052l39.188,0.547
						c-8.978,5.622-14.847,14.685-14.989,24.902c-0.155,11.139,6.068,21.136,16.075,26.913
						c-9.854,5.538-16.663,15.215-16.815,26.079c-0.153,10.975,6.07,20.998,15.975,26.747c-9.855,5.537-16.562,15.316-16.714,26.181
						c-0.154,11.073,6.382,20.967,16.39,26.679L684.893,449.146z"/>
				</g>
			</g>
			<g>
				<g>
					
						<linearGradient id="path6712_69_" gradientUnits="userSpaceOnUse" x1="762.5527" y1="528.4053" x2="808.0186" y2="528.4053" gradientTransform="matrix(0.9999 0.014 -0.014 0.9999 6.0432 -10.0535)">
						<stop  offset="0.3622" style="stop-color:#FFFFFF;stop-opacity:0"/>
						<stop  offset="1" style="stop-color:#FFFFFF;stop-opacity:0.5"/>
					</linearGradient>
					<path id="path6712_28_" fill="url(#path6712_69_)" d="M765.051,607.765c-6.387-5.797-4.477-17.933-4.356-26.493
						c0.151-10.851,5.461-20.665,15.317-26.201c-9.905-5.749-14.731-15.754-14.578-26.728c0.151-10.864,5.563-20.561,15.419-26.099
						c-10.009-5.776-14.835-15.755-14.68-26.894c0.112-8.013-1.621-19.596,4.198-25.053l39.188,0.548
						c-8.978,5.621-14.847,14.685-14.989,24.901c-0.155,11.139,6.068,21.137,16.076,26.913
						c-9.854,5.538-16.664,15.215-16.815,26.079c-0.153,10.974,6.07,20.998,15.974,26.747c-9.855,5.536-16.562,15.331-16.713,26.182
						c-0.155,11.072,6.381,20.965,16.39,26.679L765.051,607.765z"/>
					
						<linearGradient id="path6712_70_" gradientUnits="userSpaceOnUse" x1="732.8623" y1="528.4063" x2="778.3291" y2="528.4063" gradientTransform="matrix(0.9999 0.014 -0.014 0.9999 6.0432 -10.0535)">
						<stop  offset="0.3622" style="stop-color:#FFFFFF;stop-opacity:0"/>
						<stop  offset="1" style="stop-color:#FFFFFF;stop-opacity:0.5"/>
					</linearGradient>
					<path id="path6712_27_" fill="url(#path6712_70_)" d="M735.364,607.351c-6.386-5.797-4.479-17.934-4.358-26.494
						c0.151-10.851,5.462-20.665,15.319-26.201c-9.905-5.749-14.733-15.754-14.58-26.728c0.151-10.864,5.565-20.56,15.421-26.098
						c-10.009-5.777-14.837-15.756-14.682-26.895c0.112-8.013-1.619-19.596,4.199-25.052l39.188,0.547
						c-8.978,5.622-14.846,14.685-14.988,24.901c-0.155,11.139,6.067,21.137,16.076,26.914
						c-9.855,5.538-16.664,15.214-16.815,26.078c-0.153,10.974,6.069,20.998,15.973,26.747
						c-9.854,5.536-16.561,15.331-16.712,26.182c-0.155,11.072,6.38,20.966,16.39,26.679L735.364,607.351z"/>
					
						<linearGradient id="path6712_71_" gradientUnits="userSpaceOnUse" x1="708.9189" y1="528.4063" x2="754.3848" y2="528.4063" gradientTransform="matrix(0.9999 0.014 -0.014 0.9999 6.0432 -10.0535)">
						<stop  offset="0.3622" style="stop-color:#FFFFFF;stop-opacity:0"/>
						<stop  offset="1" style="stop-color:#FFFFFF;stop-opacity:0.5"/>
					</linearGradient>
					<path id="path6712_26_" fill="url(#path6712_71_)" d="M711.423,607.017c-6.386-5.798-4.478-17.934-4.357-26.494
						c0.151-10.851,5.461-20.665,15.318-26.201c-9.905-5.749-14.732-15.754-14.579-26.728c0.151-10.864,5.564-20.56,15.42-26.099
						c-10.009-5.776-14.836-15.755-14.681-26.894c0.112-8.013-1.62-19.596,4.198-25.052l39.189,0.547
						c-8.979,5.621-14.847,14.685-14.989,24.901c-0.155,11.139,6.067,21.137,16.075,26.913
						c-9.854,5.539-16.663,15.215-16.814,26.079c-0.153,10.974,6.069,20.998,15.973,26.747
						c-9.854,5.536-16.561,15.331-16.712,26.182c-0.155,11.072,6.38,20.966,16.389,26.679L711.423,607.017z"/>
					
						<linearGradient id="path6712_72_" gradientUnits="userSpaceOnUse" x1="682.1025" y1="528.4072" x2="727.5684" y2="528.4072" gradientTransform="matrix(0.9999 0.014 -0.014 0.9999 6.0432 -10.0535)">
						<stop  offset="0.3622" style="stop-color:#FFFFFF;stop-opacity:0"/>
						<stop  offset="1" style="stop-color:#FFFFFF;stop-opacity:0.5"/>
					</linearGradient>
					<path id="path6712_25_" fill="url(#path6712_72_)" d="M684.608,606.642c-6.386-5.797-4.477-17.933-4.356-26.493
						c0.151-10.851,5.461-20.665,15.317-26.202c-9.904-5.748-14.731-15.753-14.578-26.727c0.151-10.864,5.564-20.561,15.42-26.099
						c-10.009-5.776-14.836-15.755-14.681-26.894c0.112-8.013-1.62-19.596,4.198-25.053l39.188,0.548
						c-8.978,5.621-14.846,14.685-14.988,24.901c-0.155,11.139,6.067,21.137,16.075,26.913
						c-9.854,5.538-16.663,15.215-16.814,26.079c-0.153,10.974,6.069,20.998,15.973,26.746
						c-9.854,5.537-16.561,15.332-16.712,26.183c-0.155,11.072,6.38,20.965,16.389,26.678L684.608,606.642z"/>
				</g>
			</g>
		</g>
		<g>
			<g>
				<g>
					
						<linearGradient id="path6712_73_" gradientUnits="userSpaceOnUse" x1="756.5264" y1="55.978" x2="801.9922" y2="55.978" gradientTransform="matrix(0.9999 0.014 -0.014 0.9999 6.0432 -10.0535)">
						<stop  offset="0.3622" style="stop-color:#FFFFFF;stop-opacity:0"/>
						<stop  offset="1" style="stop-color:#FFFFFF;stop-opacity:0.5"/>
					</linearGradient>
					<path id="path6712_40_" fill="url(#path6712_73_)" d="M765.639,135.304c-6.386-5.8-4.477-17.936-4.357-26.497
						c0.152-10.864,5.463-20.664,15.319-26.2c-9.905-5.75-14.733-15.753-14.58-26.728c0.151-10.863,5.565-20.56,15.421-26.098
						c-10.008-5.777-14.837-15.754-14.681-26.894c0.111-8.012-1.62-19.596,4.199-25.052l39.188,0.547
						c-8.978,5.622-14.847,14.685-14.989,24.901c-0.156,11.14,6.068,21.137,16.075,26.914c-9.854,5.538-16.664,15.215-16.815,26.079
						c-0.153,10.975,6.07,20.998,15.975,26.748c-9.854,5.536-16.562,15.317-16.714,26.181c-0.154,11.074,6.382,20.966,16.39,26.679
						L765.639,135.304z"/>
					
						<linearGradient id="path6712_74_" gradientUnits="userSpaceOnUse" x1="726.8369" y1="55.979" x2="772.3027" y2="55.979" gradientTransform="matrix(0.9999 0.014 -0.014 0.9999 6.0432 -10.0535)">
						<stop  offset="0.3622" style="stop-color:#FFFFFF;stop-opacity:0"/>
						<stop  offset="1" style="stop-color:#FFFFFF;stop-opacity:0.5"/>
					</linearGradient>
					<path id="path6712_39_" fill="url(#path6712_74_)" d="M735.952,134.89c-6.387-5.8-4.477-17.936-4.357-26.497
						c0.152-10.864,5.463-20.664,15.319-26.2c-9.906-5.75-14.733-15.753-14.58-26.728c0.151-10.863,5.564-20.56,15.42-26.098
						c-10.008-5.777-14.836-15.754-14.68-26.894c0.111-8.012-1.621-19.596,4.199-25.052l39.188,0.547
						c-8.978,5.622-14.848,14.685-14.99,24.901c-0.156,11.14,6.069,21.137,16.076,26.914c-9.854,5.538-16.665,15.215-16.816,26.078
						c-0.153,10.975,6.071,20.998,15.976,26.748c-9.854,5.536-16.563,15.317-16.715,26.181
						c-0.154,11.074,6.383,20.966,16.391,26.679L735.952,134.89z"/>
					
						<linearGradient id="path6712_75_" gradientUnits="userSpaceOnUse" x1="702.8926" y1="55.98" x2="748.3594" y2="55.98" gradientTransform="matrix(0.9999 0.014 -0.014 0.9999 6.0432 -10.0535)">
						<stop  offset="0.3622" style="stop-color:#FFFFFF;stop-opacity:0"/>
						<stop  offset="1" style="stop-color:#FFFFFF;stop-opacity:0.5"/>
					</linearGradient>
					<path id="path6712_38_" fill="url(#path6712_75_)" d="M712.011,134.556c-6.386-5.8-4.477-17.937-4.357-26.498
						c0.152-10.864,5.463-20.664,15.319-26.2c-9.906-5.75-14.733-15.753-14.58-26.728c0.151-10.863,5.564-20.56,15.42-26.098
						c-10.008-5.777-14.836-15.755-14.68-26.895c0.111-8.012-1.62-19.596,4.199-25.052l39.188,0.547
						c-8.978,5.623-14.847,14.685-14.989,24.901c-0.156,11.14,6.068,21.137,16.075,26.914c-9.854,5.538-16.664,15.215-16.815,26.078
						c-0.153,10.975,6.07,20.998,15.975,26.748c-9.855,5.536-16.562,15.317-16.714,26.181c-0.154,11.074,6.382,20.966,16.39,26.679
						L712.011,134.556z"/>
					
						<linearGradient id="path6712_76_" gradientUnits="userSpaceOnUse" x1="676.0762" y1="55.981" x2="721.543" y2="55.981" gradientTransform="matrix(0.9999 0.014 -0.014 0.9999 6.0432 -10.0535)">
						<stop  offset="0.3622" style="stop-color:#FFFFFF;stop-opacity:0"/>
						<stop  offset="1" style="stop-color:#FFFFFF;stop-opacity:0.5"/>
					</linearGradient>
					<path id="path6712_37_" fill="url(#path6712_76_)" d="M685.197,134.181c-6.387-5.8-4.477-17.936-4.357-26.497
						c0.152-10.864,5.463-20.664,15.319-26.201c-9.906-5.749-14.733-15.753-14.58-26.728c0.151-10.863,5.564-20.561,15.42-26.098
						c-10.008-5.777-14.836-15.754-14.68-26.894c0.111-8.012-1.621-19.596,4.199-25.052l39.188,0.547
						c-8.978,5.623-14.848,14.686-14.99,24.902c-0.156,11.14,6.069,21.137,16.076,26.914c-9.854,5.538-16.665,15.215-16.816,26.079
						c-0.153,10.975,6.071,20.998,15.975,26.747c-9.854,5.537-16.562,15.317-16.714,26.181
						c-0.154,11.074,6.383,20.966,16.391,26.679L685.197,134.181z"/>
				</g>
			</g>
			<g>
				<g>
					
						<linearGradient id="path6712_77_" gradientUnits="userSpaceOnUse" x1="758.4482" y1="213.4648" x2="803.9131" y2="213.4648" gradientTransform="matrix(0.9999 0.014 -0.014 0.9999 6.0432 -10.0535)">
						<stop  offset="0.3622" style="stop-color:#FFFFFF;stop-opacity:0"/>
						<stop  offset="1" style="stop-color:#FFFFFF;stop-opacity:0.5"/>
					</linearGradient>
					<path id="path6712_36_" fill="url(#path6712_77_)" d="M765.355,292.8c-6.387-5.798-4.477-17.935-4.356-26.495
						c0.151-10.851,5.461-20.665,15.317-26.201c-9.906-5.749-14.732-15.754-14.579-26.728c0.152-10.863,5.563-20.56,15.42-26.098
						c-10.009-5.777-14.835-15.755-14.68-26.894c0.112-8.013-1.621-19.596,4.199-25.052l39.188,0.547
						c-8.978,5.621-14.848,14.685-14.99,24.901c-0.155,11.139,6.068,21.137,16.076,26.914c-9.855,5.538-16.664,15.215-16.816,26.078
						c-0.153,10.974,6.07,20.998,15.974,26.747c-9.854,5.536-16.561,15.331-16.712,26.182c-0.155,11.073,6.381,20.966,16.389,26.679
						L765.355,292.8z"/>
					
						<linearGradient id="path6712_78_" gradientUnits="userSpaceOnUse" x1="728.7578" y1="213.4658" x2="774.2227" y2="213.4658" gradientTransform="matrix(0.9999 0.014 -0.014 0.9999 6.0432 -10.0535)">
						<stop  offset="0.3622" style="stop-color:#FFFFFF;stop-opacity:0"/>
						<stop  offset="1" style="stop-color:#FFFFFF;stop-opacity:0.5"/>
					</linearGradient>
					<path id="path6712_35_" fill="url(#path6712_78_)" d="M735.669,292.386c-6.387-5.798-4.478-17.935-4.357-26.495
						c0.151-10.851,5.461-20.665,15.318-26.201c-9.906-5.749-14.733-15.754-14.58-26.728c0.152-10.863,5.564-20.56,15.421-26.098
						c-10.009-5.777-14.836-15.755-14.681-26.894c0.112-8.013-1.62-19.596,4.198-25.052l39.189,0.547
						c-8.979,5.621-14.847,14.685-14.989,24.901c-0.155,11.139,6.067,21.137,16.075,26.914
						c-9.855,5.538-16.663,15.215-16.815,26.078c-0.153,10.974,6.069,20.998,15.974,26.747
						c-9.854,5.536-16.561,15.331-16.712,26.182c-0.155,11.073,6.38,20.966,16.388,26.679L735.669,292.386z"/>
					
						<linearGradient id="path6712_79_" gradientUnits="userSpaceOnUse" x1="704.8135" y1="213.4668" x2="750.2803" y2="213.4668" gradientTransform="matrix(0.9999 0.014 -0.014 0.9999 6.0432 -10.0535)">
						<stop  offset="0.3622" style="stop-color:#FFFFFF;stop-opacity:0"/>
						<stop  offset="1" style="stop-color:#FFFFFF;stop-opacity:0.5"/>
					</linearGradient>
					<path id="path6712_34_" fill="url(#path6712_79_)" d="M711.729,292.051c-6.388-5.798-4.479-17.935-4.358-26.495
						c0.151-10.851,5.462-20.665,15.319-26.201c-9.906-5.75-14.734-15.754-14.581-26.728c0.152-10.863,5.565-20.56,15.422-26.097
						c-10.009-5.777-14.837-15.756-14.682-26.895c0.112-8.013-1.62-19.596,4.199-25.052l39.188,0.547
						c-8.978,5.621-14.847,14.685-14.989,24.901c-0.155,11.139,6.068,21.137,16.076,26.914
						c-9.855,5.538-16.664,15.215-16.816,26.078c-0.153,10.974,6.07,20.998,15.975,26.748c-9.854,5.536-16.562,15.331-16.713,26.181
						c-0.155,11.073,6.381,20.966,16.389,26.679L711.729,292.051z"/>
					
						<linearGradient id="path6712_80_" gradientUnits="userSpaceOnUse" x1="677.998" y1="213.4678" x2="723.4629" y2="213.4678" gradientTransform="matrix(0.9999 0.014 -0.014 0.9999 6.0432 -10.0535)">
						<stop  offset="0.3622" style="stop-color:#FFFFFF;stop-opacity:0"/>
						<stop  offset="1" style="stop-color:#FFFFFF;stop-opacity:0.5"/>
					</linearGradient>
					<path id="path6712_33_" fill="url(#path6712_80_)" d="M684.913,291.677c-6.386-5.797-4.477-17.935-4.356-26.495
						c0.151-10.851,5.461-20.665,15.317-26.201c-9.906-5.75-14.732-15.754-14.579-26.728c0.152-10.863,5.563-20.56,15.421-26.097
						c-10.01-5.777-14.836-15.756-14.681-26.895c0.112-8.013-1.62-19.596,4.199-25.052l39.188,0.547
						c-8.978,5.622-14.847,14.685-14.989,24.901c-0.155,11.139,6.067,21.137,16.075,26.914
						c-9.855,5.538-16.663,15.215-16.815,26.078c-0.153,10.974,6.069,20.998,15.974,26.748
						c-9.854,5.536-16.561,15.331-16.712,26.181c-0.155,11.073,6.38,20.966,16.388,26.679L684.913,291.677z"/>
				</g>
			</g>
		</g>
	</g>
</g>
<g id="prevoj" display="none">
	<g id="prevoj_1_">
		<path display="inline" fill="none" stroke="#666666" stroke-width="40" d="M651.012,350.333
			C700.016,397,795.021,399.326,855.691,351"/>
		<path display="inline" fill="none" stroke="#666666" stroke-width="40" d="M855.691,549.297
			c-49.004-46.666-144.01-48.992-204.68-0.666"/>
	</g>
</g>
<g id="sporedne" display="none">
	<g id="sporedne_1_" display="inline">
		<line fill="#4D4D4D" x1="456.375" y1="449.823" x2="1093.125" y2="450.177"/>
		<g>
			<path fill="#666666" d="M456.375,489.823c23.981,0.014,47.963,0.026,71.945,0.04c56.397,0.031,112.795,0.063,169.192,0.094
				c65.493,0.036,130.986,0.073,196.479,0.109c51.268,0.028,102.534,0.057,153.802,0.085c15.11,0.009,30.222,0.017,45.332,0.025
				c21.805,0.012,40-18.204,40-40c0-21.814-18.195-39.988-40-40c-23.981-0.013-47.963-0.027-71.945-0.04
				c-56.397-0.031-112.795-0.063-169.192-0.094c-65.493-0.037-130.986-0.073-196.479-0.109
				c-51.268-0.028-102.534-0.057-153.802-0.085c-15.11-0.009-30.222-0.017-45.332-0.025c-21.805-0.012-40,18.205-40,40
				C416.375,471.637,434.57,489.812,456.375,489.823L456.375,489.823z"/>
		</g>
	</g>
</g>
<g id="Voda" display="none">
	<g id="voda">
		<path id="path6710_1_" display="inline" fill="#0000FF" stroke="#666666" stroke-miterlimit="10" d="M827.704,574.992
			c16.523,0,29.93-13.432,29.93-29.955V354.438c0-16.548-13.406-29.929-29.93-29.929H637.081c-16.524,0-29.904,13.381-29.904,29.929
			v190.599c0,16.523,13.38,29.955,29.904,29.955H827.704z"/>
		<path id="path6712_1_" display="inline" fill="#FFFFFF" stroke="#666666" stroke-miterlimit="10" d="M775.601,392.833
			c-3.269,3.167-7.679,4.409-12.569,4.409c-6.209,0-11.86-2.534-15.104-7.325c-3.218,4.893-8.895,7.325-15.181,7.325
			c-6.207,0-11.809-2.585-15.052-7.375c-3.219,4.943-8.896,7.375-15.256,7.375c-4.588,0-8.794-1.04-11.962-3.852l-2.408-17.233
			c3.295,4.359,8.515,7.172,14.37,7.172c6.36,0,12.037-3.118,15.256-8.059c3.243,4.79,8.845,8.059,15.052,8.059
			c6.286,0,11.963-3.118,15.181-8.009c3.244,4.79,8.896,8.009,15.104,8.009c6.335,0,11.936-3.269,15.129-8.212L775.601,392.833z"/>
		<path id="path6714_1_" display="inline" fill="#FFFFFF" stroke="#666666" stroke-miterlimit="10" d="M780.188,538.348
			l27.447-175.191l-18.476,0.177l-24.962,156.54h-62.19l-24.961-156.54l-18.476-0.177l27.445,175.191H780.188z"/>
	</g>
</g>
<g id="glavne" display="none">
	<g id="glavne_1_">
		<line display="inline" fill="#4D4D4D" x1="456.375" y1="449.823" x2="1093.125" y2="450.177"/>
		<g display="inline">
			<path fill="#FF0000" d="M456.375,489.823c23.981,0.014,47.963,0.026,71.945,0.04c56.397,0.031,112.795,0.063,169.192,0.094
				c65.493,0.036,130.986,0.073,196.479,0.109c51.268,0.028,102.534,0.057,153.802,0.085c15.11,0.009,30.222,0.017,45.332,0.025
				c21.805,0.012,40-18.204,40-40c0-21.814-18.195-39.988-40-40c-23.981-0.013-47.963-0.027-71.945-0.04
				c-56.397-0.031-112.795-0.063-169.192-0.094c-65.493-0.037-130.986-0.073-196.479-0.109
				c-51.268-0.028-102.534-0.057-153.802-0.085c-15.11-0.009-30.222-0.017-45.332-0.025c-21.805-0.012-40,18.205-40,40
				C416.375,471.637,434.57,489.812,456.375,489.823L456.375,489.823z"/>
		</g>
	</g>
</g>
<g id="naselje" display="none">
	<g id="naselje_1_">
		<path display="inline" fill="#999999" d="M35.213,326.068c-25.127,25.129-37.967,38.521-37.967,39.546
			c0,2.364,8.586,10.633,11.027,10.633c1.495,0,8.981-7.092,33.084-31.115c26.861-26.861,31.511-31.116,33.479-31.116
			c1.968,0,6.617,4.255,33.479,31.116c24.498,24.42,31.589,31.115,33.084,31.115c2.441,0,11.028-8.352,11.028-10.633
			c0-2.208-75.466-77.591-77.591-77.591C73.811,288.023,60.028,301.175,35.213,326.068z"/>
		<path display="inline" fill="#999999" d="M104.535,292.433c-1.499,1.025-1.733,1.891-1.733,6.066v4.883l10.871,10.872
			c5.909,5.909,11.106,10.794,11.424,10.794s0.552-6.931,0.552-15.361c0-19.301,0.473-18.51-11.263-18.51
			C108.315,291.172,105.873,291.487,104.535,292.433z"/>
		<path display="inline" fill="#999999" d="M43.17,354.351l-30.174,30.173v28.912c0,27.964,0.079,29.068,1.578,30.564
			c1.498,1.494,2.598,1.576,18.749,1.576c14.256,0,17.41-0.234,18.905-1.26c1.733-1.182,1.733-1.338,1.733-22.846v-21.665
			l1.969-1.891c1.891-1.97,1.891-1.97,18.906-1.97s17.016,0,18.905,1.97l1.969,1.891v21.665c0,21.504,0,21.664,1.733,22.846
			c1.495,1.025,4.649,1.26,18.906,1.26c16.15,0,17.249-0.078,18.748-1.576s1.577-2.6,1.577-30.564v-28.912l-30.173-30.173
			c-18.904-18.905-30.72-30.09-31.666-30.09C73.89,324.261,62.074,335.446,43.17,354.351z"/>
		<path display="inline" fill="#666666" d="M176.295,362.72c-39.545,39.546-45.846,46.164-45.846,48.132
			c0,1.813,1.183,3.546,5.358,7.722c8.824,8.743,4.488,11.657,48.604-32.454c32.927-32.928,38.128-37.813,40.175-37.813
			c2.046,0,7.247,4.885,40.175,37.813c44.116,44.111,39.779,41.201,48.604,32.454c4.176-4.176,5.357-5.909,5.357-7.722
			c0-1.968-6.222-8.507-45.924-48.132c-40.253-40.33-46.162-45.923-48.21-45.923C222.457,316.797,216.627,322.39,176.295,362.72z"/>
		<path display="inline" fill="#666666" d="M260.034,322.703c-1.655,1.578-1.969,2.677-1.969,6.853v4.963l13.627,13.626
			c7.482,7.403,13.864,13.547,14.179,13.547c0.316,0,0.552-8.272,0.552-18.432c0-23.946,0.864-22.529-13.866-22.529
			C262.315,320.734,261.842,320.812,260.034,322.703z"/>
		<path display="inline" fill="#666666" d="M185.828,397.303l-36.474,36.474l0.157,35.291l0.234,35.369l1.891,1.494
			c1.733,1.418,3.311,1.5,22.925,1.5c19.613,0,21.191-0.078,22.925-1.5l1.891-1.494l0.395-26.861
			c0.396-24.342,0.552-26.939,1.812-28.199c1.261-1.262,3.312-1.418,23.004-1.418c19.691,0,21.738,0.156,23.003,1.418
			c1.261,1.26,1.416,3.857,1.813,28.199l0.395,26.861l1.891,1.494c1.733,1.418,3.307,1.5,22.925,1.5s21.19-0.078,22.925-1.5
			l1.891-1.494l0.234-35.369l0.155-35.291l-36.472-36.474c-31.59-31.51-36.708-36.394-38.759-36.394
			S217.417,365.793,185.828,397.303z"/>
		<path display="inline" fill="#333333" d="M50.495,445.42l-53.249,53.172l0.473,3.072c0.395,2.363,1.655,4.098,6.301,8.664
			c9.768,9.611,4.331,13.313,55.695-37.969c40.884-40.883,43.955-43.717,46.476-43.717c2.52,0,5.592,2.834,46.476,43.723
			c50.968,50.885,45.924,47.422,54.905,38.758c5.909-5.672,7.638-8.43,6.931-11.502c-0.313-1.416-16.781-18.432-52.62-54.275
			c-47.105-47.11-52.463-52.228-55.222-52.702l-2.994-0.473L50.495,445.42z"/>
		<path display="inline" fill="#333333" d="M147.86,398.154c-2.286,1.733-3.071,4.333-3.071,9.768v5.357l16.149,16.151
			l16.146,16.146v-22.291v-22.292l-1.968-1.891c-1.812-1.891-2.208-1.97-13.943-1.97
			C152.983,397.211,148.729,397.446,147.86,398.154z"/>
		<path display="inline" fill="#333333" d="M61.526,485.518l-41.987,41.986v40.41v40.492l2.287,2.285l2.285,2.285h24.185H72.48
			l2.286-2.285l2.285-2.285v-29.303c0-32.928,0-33.084,5.357-34.662c1.891-0.553,10.634-0.785,25.523-0.631l22.686,0.234
			l2.129,2.209l2.207,2.125l0.396,30.959c0.234,16.936,0.552,30.959,0.631,31.037c0.078,0.078,1.182,0.709,2.52,1.416
			c1.891,0.947,6.301,1.182,25.919,1.182h23.633l2.207-1.889l2.207-1.891l0.235-40.885l0.156-40.805l-42.004-41.986
			c-39.227-39.15-42.144-41.91-44.663-41.91C103.67,443.607,100.755,446.367,61.526,485.518z"/>
	</g>
</g>
<g id="hrana" display="none">
	<g id="hrana_1_">
		<path id="path6710_8_" display="inline" fill="#CC6600" stroke="#AFA47C" stroke-miterlimit="10" d="M827.53,575
			c16.494,0,29.875-13.405,29.875-29.897V354.871c0-16.515-13.381-29.871-29.875-29.871H637.256
			c-16.495,0-29.851,13.356-29.851,29.871v190.231c0,16.492,13.355,29.897,29.851,29.897H827.53z"/>
		<path display="inline" fill="#FEFCF5" d="M746.127,467.337l16.905-21.013c5.761,0.223,12.039-1.685,18.661-4.976l40.683-51.195
			l-4.093-8.231l-30.456,38.326c-1.807,2.272-5.118,2.653-7.396,0.845c-2.273-1.809-2.653-5.119-0.845-7.395l30.455-38.324
			l-6.73-5.348l-30.455,38.325c-1.808,2.274-5.117,2.655-7.396,0.848c-2.272-1.809-2.653-5.12-0.844-7.395l30.454-38.325
			l-8.944-2.125l-41.481,52.203c-1.471,7.158-1.846,13.464-0.218,18.779l-13.522,16.807l-17.869-21.356
			c4.614-12.09,0.956-28.883-10.461-42.526c-15.044-17.98-37.854-23.682-50.943-12.734c-13.09,10.951-11.504,34.405,3.544,52.387
			c11.416,13.644,27.296,20.208,40.016,17.805l20.843,24.908l-40.943,50.888c-4.001,5.029-3.163,12.349,1.868,16.347
			c5.029,3.993,12.351,3.155,16.347-1.874l37.952-47.167l39.657,47.394c4.12,4.93,11.458,5.582,16.388,1.46
			c4.926-4.121,5.578-11.46,1.454-16.387L746.127,467.337z"/>
	</g>
</g>
</svg>
