<?xml version="1.0" encoding="utf-8"?>
<!-- Generator: Adobe Illustrator 16.0.3, SVG Export Plug-In . SVG Version: 6.00 Build 0)  -->
<!DOCTYPE svg PUBLIC "-//W3C//DTD SVG 1.1//EN" "http://www.w3.org/Graphics/SVG/1.1/DTD/svg11.dtd">
<svg version="1.1" id="Layer_1" xmlns="http://www.w3.org/2000/svg" xmlns:xlink="http://www.w3.org/1999/xlink" x="0px" y="0px"
	 width="200px" height="40px" viewBox="0 0 200 40" enable-background="new 0 0 200 40" xml:space="preserve">
<g id="Page-1">
	<g id="bank-note">
		<path id="Combined-Shape" d="M42.368,40c0.714-0.262,1.439-0.527,2.177-0.805c0.725-0.27,3.196-1.195,3.535-1.322
			C67.279,30.695,79.294,28,100,28c20.543,0,30.723,2.443,49.258,9.857c1.91,0.764,3.738,1.479,5.5,2.143h12.449
			c-5.02-1.461-10.277-3.383-16.465-5.857C131.777,26.557,121.125,24,100,24c-21.252,0-33.71,2.795-53.321,10.127
			c-0.341,0.127-2.812,1.053-3.532,1.322c-4.949,1.848-9.321,3.35-13.447,4.551H42.368L42.368,40z M42.368,0
			C26.515,5.784,16.153,8,0,8l0,0V4c11.488,0,19.902-1.148,29.699-4H42.368L42.368,0z M154.758,0C170.477,5.933,181.004,8,200,8V4
			c-13.684,0-22.771-1.084-32.793-4H154.758L154.758,0z M0,28c16.881,0,27.437-2.42,44.545-8.804
			c0.725-0.27,3.196-1.196,3.535-1.323C67.279,10.695,79.294,8,100,8c20.543,0,30.723,2.443,49.258,9.857
			C168.223,25.443,178.875,28,200,28v-4c-20.543,0-30.723-2.443-49.258-9.857C131.777,6.557,121.125,4,100,4
			C78.748,4,66.29,6.795,46.679,14.127c-0.341,0.127-2.812,1.053-3.532,1.322C26.447,21.68,16.327,24,0,24V28L0,28L0,28z"/>
	</g>
</g>
</svg>
