<?xml version="1.0" encoding="utf-8"?>
<!-- Generator: Adobe Illustrator 16.0.3, SVG Export Plug-In . SVG Version: 6.00 Build 0)  -->
<!DOCTYPE svg PUBLIC "-//W3C//DTD SVG 1.1//EN" "http://www.w3.org/Graphics/SVG/1.1/DTD/svg11.dtd">
<svg version="1.1"
	 id="svg5738" xmlns:dc="http://purl.org/dc/elements/1.1/" xmlns:cc="http://creativecommons.org/ns#" xmlns:rdf="http://www.w3.org/1999/02/22-rdf-syntax-ns#" xmlns:svg="http://www.w3.org/2000/svg" xmlns:sodipodi="http://sodipodi.sourceforge.net/DTD/sodipodi-0.dtd" xmlns:inkscape="http://www.inkscape.org/namespaces/inkscape" sodipodi:docname="trash.svg" inkscape:version="0.91+devel+osxmenu r12911"
	 xmlns="http://www.w3.org/2000/svg" xmlns:xlink="http://www.w3.org/1999/xlink" x="0px" y="0px" width="20px" height="20px"
	 viewBox="0 0 20 20" enable-background="new 0 0 20 20" xml:space="preserve">
<sodipodi:namedview  showgrid="true" inkscape:cy="8.8461307" inkscape:cx="12.128184" inkscape:zoom="22.627417" borderopacity="1.0" bordercolor="#666666" pagecolor="#ffffff" id="base" inkscape:object-nodes="true" inkscape:snap-smooth-nodes="true" inkscape:window-maximized="0" inkscape:window-y="23" inkscape:current-layer="layer1" inkscape:window-x="20" inkscape:pageshadow="2" inkscape:document-units="px" inkscape:pageopacity="0.0" inkscape:window-height="751" inkscape:window-width="1033">
	<inkscape:grid  type="xygrid" enabled="true" visible="true" empspacing="5" id="grid5746" snapvisiblegridlinesonly="true">
		</inkscape:grid>
</sodipodi:namedview>
<path id="XMLID_2029_" d="M17.846,16.643c0,0.088-0.035,0.172-0.098,0.236c-0.063,0.061-0.148,0.098-0.236,0.098h-1.676
	c-0.029,0-0.059-0.004-0.088-0.012l-4.229-1.158c-0.143-0.039-0.311-0.039-0.459,0l-4.32,1.158c-0.057,0.016-0.116,0.016-0.173,0
	l-3.535-0.947c-0.146-0.039-0.247-0.172-0.247-0.322v-0.453c0-0.186,0.149-0.334,0.333-0.334c0.185,0,0.334,0.148,0.334,0.334v0.197
	l3.201,0.857l4.234-1.135c0.263-0.07,0.55-0.07,0.808,0l4.185,1.146h1.297l-0.002-9.509l-0.121-0.033
	c-0.178-0.049-0.283-0.232-0.234-0.41c0.049-0.178,0.232-0.283,0.41-0.234l0.367,0.1c0.145,0.04,0.246,0.171,0.246,0.322
	L17.846,16.643z M6.561,15.248l-4.313-1.156C2.102,14.053,2,13.92,2,13.77V9.971c0-0.006,0-0.01,0-0.016V6.162
	c0-0.005,0-0.01,0-0.015V2.375c0-0.104,0.048-0.202,0.13-0.265C2.213,2.046,2.32,2.025,2.42,2.052l4.234,1.134l4.234-1.134
	C11.02,2.017,11.154,1.999,11.291,2c0.139-0.001,0.275,0.017,0.405,0.052l4.325,1.18c0.145,0.04,0.246,0.172,0.246,0.322v11.395
	c0,0.104-0.049,0.203-0.131,0.266c-0.059,0.045-0.131,0.068-0.201,0.068c-0.031,0-0.061-0.004-0.09-0.012l-4.325-1.18
	c-0.071-0.02-0.147-0.029-0.226-0.029c-0.001,0-0.002,0-0.004,0h-0.002c-0.076,0-0.154,0.01-0.229,0.029l-4.313,1.156
	C6.72,15.256,6.625,15.27,6.561,15.248z M11.625,5.815c0.023,0.005,0.047,0.011,0.07,0.017L15.6,6.88V3.809l-3.975-1.084V5.815z
	 M11.625,9.623c0.023,0.005,0.047,0.011,0.07,0.018l3.904,1.047V7.571l-3.975-1.066V9.623L11.625,9.623z M11.625,13.43
	c0.023,0.006,0.048,0.012,0.071,0.018l3.905,1.064L15.6,11.379l-3.975-1.066V13.43z M6.988,6.877l3.901-1.045
	c0.022-0.006,0.045-0.012,0.068-0.017V2.725L6.988,3.788V6.877z M6.988,10.686l3.901-1.045c0.022-0.007,0.045-0.013,0.068-0.018
	V6.505L6.988,7.568V10.686z M6.988,14.492l3.901-1.045c0.022-0.006,0.045-0.012,0.068-0.018v-3.117l-3.969,1.063V14.492z
	 M6.32,11.376l-3.652-0.978v3.115l3.652,0.979V11.376z M6.32,7.568L2.668,6.59v3.116l3.652,0.979V7.568z M6.32,3.788L2.668,2.81
	v3.089L6.32,6.877V3.788z"/>
</svg>
