<svg xmlns="http://www.w3.org/2000/svg" xmlns:xlink="http://www.w3.org/1999/xlink" version="1.1" x="0px" y="0px" viewBox="0 0 100 125" enable-background="new 0 0 100 100" xml:space="preserve"><path d="M63.3,17.1c0,4.7-3.8,8.4-8.4,8.4s-8.4-3.8-8.4-8.4s3.8-8.4,8.4-8.4S63.3,12.5,63.3,17.1z M41.9,27.9c0.5-1.7-0.6-4-2.8-4.1  c-1.2,0-3.7-0.1-5.6-0.1s-3.6,0.3-4.1,2l-8,22.1c-0.5,1.7,0.4,3.5,2.1,4l6.1,2.5c1.7,0.6,3.6-0.3,4.1-2L41.9,27.9z M74.4,47.3  l-0.8-0.4V36.1h-3v9.3L64,42.3l-8.2-11.4c-1.3-2.6-3.7-4.6-7.6-4c-3.6,0.5-4.9,4.5-5.8,8.9l-2.4,11.7c0,0,0,0,0,0l0,0L38,56.6  c-0.1,0.4-0.1,0.7-0.1,1L35.8,68L23.5,83.5c-1.4,1.7-1.1,4.3,0.7,5.6c0.7,0.6,1.5,0.8,2.4,0.9c1.2,0,2.4-0.5,3.2-1.5l12.8-16.3  c0.4-0.5,0.6-1,0.8-1.6l2-9.2l7.7,10.2l0.8,16c0.1,2.1,1.8,3.8,3.9,3.8c0.1,0,0.2,0,0.3,0c2.2-0.1,3.9-2,3.8-4.2L61,69.9  c0-0.8-0.3-1.6-0.8-2.2L52.9,58l3.4-16.1l3.2,4.5c0.3,0.4,0.7,0.7,1.1,1l9.9,4.7v38.1h3V52.9c0.9-0.1,1.8-0.7,2.2-1.7  C76.5,49.8,75.9,48,74.4,47.3z"/><text x="0" y="115" fill="#000000" font-size="5px" font-weight="bold" font-family="'Helvetica Neue', Helvetica, Arial-Unicode, Arial, Sans-serif">Created by Think TIfferent</text><text x="0" y="120" fill="#000000" font-size="5px" font-weight="bold" font-family="'Helvetica Neue', Helvetica, Arial-Unicode, Arial, Sans-serif">from the Noun Project</text></svg>