<svg xmlns="http://www.w3.org/2000/svg" xmlns:xlink="http://www.w3.org/1999/xlink" version="1.1" x="0px" y="0px" viewBox="0 0 30 37.5" xml:space="preserve"><g transform="translate(-570 -380)"><g xmlns="http://www.w3.org/2000/svg" xmlns:xlink="http://www.w3.org/1999/xlink"><polygon points="576,403 573,409 576,409 579,403 578.457,399.739 574.407,398.221   "/><circle cx="582.5" cy="384.5" r="2.5"/><rect x="569.043" y="388.052" transform="matrix(0.4391 -0.8984 0.8984 0.4391 -28.3027 734.4328)" width="10" height="3.663"/><polygon points="600,393 599,393 597,397 594,399 592,403 590,403 585,407 580,407 578,409 600,409   "/><polygon points="589,391 589,392 586,392 583,389 579,387 574,397 582,400 582,406 584,406 585,399 580.2,396.199 582,391     585,394 589,393.2 589,402 590,402 590,391   "/></g></g><text x="0" y="45" fill="#000000" font-size="5px" font-weight="bold" font-family="'Helvetica Neue', Helvetica, Arial-Unicode, Arial, Sans-serif">Created by Hea Poh Lin</text><text x="0" y="50" fill="#000000" font-size="5px" font-weight="bold" font-family="'Helvetica Neue', Helvetica, Arial-Unicode, Arial, Sans-serif">from the Noun Project</text></svg>